<svg xmlns="http://www.w3.org/2000/svg" xmlns:xlink="http://www.w3.org/1999/xlink" viewBox="0 0 482 278"><defs><style>.cls-1,.cls-4{fill:none;}.cls-2{fill:#7e5659;}.cls-3{isolation:isolate;}.cls-4{stroke:#00aeef;stroke-miterlimit:10;}.cls-5{fill:#e4efff;}.cls-6{fill:#d1dbea;}.cls-7{fill:#879ba6;}.cls-8{fill:#3bb6d5;}.cls-9{fill:#f78065;}.cls-10{fill:#de4e69;}.cls-11{fill:#b0bfde;}.cls-12{opacity:0.3;}.cls-13{fill:#163f59;}.cls-14{clip-path:url(#clip-path);}.cls-15{fill:#858585;}.cls-16{fill:#8e8e8e;}.cls-17{fill:gray;}.cls-18{fill:#f28c42;}.cls-19{fill:#e05a44;}.cls-20{fill:#194866;}.cls-21{clip-path:url(#clip-path-2);}.cls-22{fill:#5d3227;}.cls-23{clip-path:url(#clip-path-3);}.cls-24{fill:#e9d6b8;}.cls-25{fill:#f3a0a2;}.cls-26{fill:#e2c59c;}.cls-27{fill:#161711;}.cls-28{fill:#f8768f;}.cls-29{fill:#694749;}.cls-30{fill:#fff;}.cls-31{fill:#fdc2cc;}.cls-32{fill:#68494d;}.cls-33{fill:#c96567;}.cls-34{fill:#db786e;}.cls-35{fill:#874444;}.cls-36{fill:#a8a8a8;}.cls-37{fill:#3d7aa8;}.cls-38{fill:#f4da80;}.cls-39{fill:#34688f;}.cls-40{fill:#d0dee6;}.cls-41{fill:#b6c2c9;}.cls-42{fill:#cdd5d8;}.cls-43{fill:#b7bec0;}.cls-44{fill:#c97788;}.cls-45{fill:#f7f8fc;}.cls-46{fill:#e5e8ec;}.cls-47{fill:#bcd0e2;}.cls-48{mix-blend-mode:multiply;}.cls-49{fill:#cdd5d7;}.cls-50{fill:#d8e5ed;}.cls-51{fill:#b5d1de;}</style><clipPath id="clip-path"><path class="cls-1" d="M339.5,105.63l-7-.4a55.47,55.47,0,0,0,16.7-29.6l7,.4C353.48,88.07,348.14,97.55,339.5,105.63Z"/></clipPath><clipPath id="clip-path-2"><path class="cls-1" d="M302.9.46l7,.39a48,48,0,0,0-7,.12l-7-.4A46.47,46.47,0,0,1,302.9.46Z"/></clipPath><clipPath id="clip-path-3"><path class="cls-2" d="M293.26,117.82l-7-.4a48.32,48.32,0,0,1-5.56-.64c-1.37-.24-2.75-.53-4.13-.89-26.18-6.76-42.65-34.49-38.28-63.15.21-1.41.48-2.82.8-4.23C244.46,24.66,263,8,284.09,5.61c.32,0,.57-.07.85-.08l7,.4c-.28,0-.53,0-.85.08-21.12,2.39-39.63,19-45,42.9-.32,1.41-.58,2.82-.8,4.23-4.37,28.66,12.1,56.39,38.29,63.15,1.38.36,2.75.65,4.12.89A48.57,48.57,0,0,0,293.26,117.82Z"/></clipPath></defs><g class="cls-3"><g id="Layer_1" data-name="Layer 1"><rect class="cls-4" x="-77.24" y="-410.69" width="1803.7" height="1648.07"/><rect class="cls-5" x="99.92" y="67.9" width="56.6" height="61.73" transform="translate(-10.04 182.89) rotate(-68.92)"/><rect class="cls-6" x="135.01" y="43.82" width="4.99" height="61.73" transform="translate(18.37 176.12) rotate(-68.92)"/><rect class="cls-7" x="110.05" y="63.65" width="1.71" height="1.45" transform="translate(10.97 144.73) rotate(-68.93)"/><rect class="cls-7" x="112.69" y="64.67" width="1.71" height="1.45" transform="translate(11.69 147.82) rotate(-68.92)"/><rect class="cls-7" x="115.32" y="65.68" width="1.71" height="1.45" transform="translate(12.43 150.92) rotate(-68.92)"/><rect class="cls-6" x="131.92" y="59.2" width="2.19" height="53.27" transform="translate(5.09 179.09) rotate(-68.92)"/><rect class="cls-6" x="118.18" y="71.35" width="2.19" height="26.85" transform="translate(-2.73 165.58) rotate(-68.92)"/><rect class="cls-7" x="95.47" y="108.49" width="2.19" height="2.39" transform="translate(-40.51 160.32) rotate(-68.92)"/><rect class="cls-6" x="102.62" y="106.81" width="2.19" height="11.26" transform="translate(-38.5 168.78) rotate(-68.92)"/><rect class="cls-8" x="111.99" y="114.86" width="2.19" height="2.39" transform="translate(-35.86 179.87) rotate(-68.94)"/><rect class="cls-6" x="118.47" y="113.65" width="2.19" height="9.8" transform="translate(-34.05 187.47) rotate(-68.92)"/><rect class="cls-9" x="127.49" y="120.83" width="2.19" height="2.39" transform="translate(-31.53 198.1) rotate(-68.91)"/><rect class="cls-6" x="133.97" y="119.62" width="2.19" height="9.8" transform="translate(-29.7 205.77) rotate(-68.92)"/><rect class="cls-6" x="116.8" y="66.37" width="2.19" height="17.26" transform="translate(5.51 158.04) rotate(-68.92)"/><rect class="cls-6" x="90.08" y="94.18" width="23.31" height="2.05" transform="matrix(0.36, -0.93, 0.93, 0.36, -23.69, 155.9)"/><rect class="cls-6" x="92.88" y="95.26" width="23.31" height="2.05" transform="translate(-22.91 159.19) rotate(-68.92)"/><rect class="cls-6" x="95.68" y="96.34" width="23.31" height="2.05" transform="translate(-22.12 162.5) rotate(-68.92)"/><rect class="cls-6" x="98.48" y="97.42" width="23.31" height="2.05" transform="translate(-21.32 165.83) rotate(-68.93)"/><rect class="cls-6" x="101.28" y="98.5" width="23.31" height="2.05" transform="translate(-20.54 169.11) rotate(-68.92)"/><rect class="cls-6" x="104.09" y="99.58" width="23.31" height="2.05" transform="translate(-19.77 172.39) rotate(-68.91)"/><rect class="cls-6" x="106.89" y="100.66" width="23.31" height="2.05" transform="translate(-18.99 175.69) rotate(-68.91)"/><rect class="cls-6" x="109.69" y="101.74" width="23.31" height="2.05" transform="translate(-18.2 179) rotate(-68.91)"/><rect class="cls-6" x="112.49" y="102.82" width="23.31" height="2.05" transform="translate(-17.41 182.32) rotate(-68.91)"/><rect class="cls-6" x="115.29" y="103.9" width="23.31" height="2.05" transform="translate(-16.62 185.63) rotate(-68.92)"/><rect class="cls-6" x="118.09" y="104.98" width="23.31" height="2.05" transform="matrix(0.36, -0.93, 0.93, 0.36, -15.82, 188.95)"/><rect class="cls-6" x="120.89" y="106.06" width="23.31" height="2.04" transform="translate(-15.05 192.22) rotate(-68.91)"/><rect class="cls-6" x="123.69" y="107.14" width="23.31" height="2.05" transform="translate(-14.28 195.5) rotate(-68.9)"/><rect class="cls-6" x="126.49" y="108.22" width="23.31" height="2.05" transform="translate(-13.5 198.8) rotate(-68.9)"/><rect class="cls-6" x="129.29" y="109.3" width="23.31" height="2.05" transform="translate(-12.67 202.18) rotate(-68.93)"/><rect class="cls-6" x="132.09" y="110.37" width="23.31" height="2.05" transform="translate(-11.89 205.47) rotate(-68.92)"/><rect class="cls-6" x="134.9" y="111.46" width="23.31" height="2.05" transform="translate(-11.14 208.71) rotate(-68.9)"/><rect class="cls-6" x="137.7" y="112.53" width="23.31" height="2.05" transform="translate(-10.31 212.1) rotate(-68.93)"/><rect class="cls-9" x="143.24" y="120.62" width="5.99" height="2.05" transform="translate(-19.84 214.38) rotate(-68.93)"/><rect class="cls-7" x="138.74" y="117.05" width="11.32" height="2.05" transform="translate(-17.71 210.34) rotate(-68.92)"/><rect class="cls-9" x="136.64" y="117" width="9.11" height="2.05" transform="translate(-19.71 207.32) rotate(-68.92)"/><rect class="cls-8" x="132.61" y="114.12" width="12.97" height="2.05" transform="translate(-18.33 203.59) rotate(-68.95)"/><rect class="cls-7" x="132.79" y="117.39" width="3.65" height="2.05" transform="matrix(0.36, -0.93, 0.93, 0.36, -24.3, 201.42)"/><rect class="cls-9" x="128.24" y="113.76" width="9.12" height="2.05" transform="translate(-22.12 197.3) rotate(-68.88)"/><rect class="cls-8" x="124.4" y="111.17" width="12.36" height="2.04" transform="translate(-21.05 193.7) rotate(-68.93)"/><rect class="cls-7" x="123.96" y="113.53" width="4.98" height="2.05" transform="translate(-25.9 191.37) rotate(-68.93)"/><rect class="cls-9" x="121.93" y="113.57" width="2.57" height="2.05" transform="translate(-28.01 188.4) rotate(-68.94)"/><rect class="cls-8" x="117.36" y="109.92" width="8.1" height="2.04" transform="translate(-25.78 184.32) rotate(-68.92)"/><rect class="cls-7" x="113.72" y="107.62" width="10.71" height="2.04" transform="translate(-25.13 180.65) rotate(-68.91)"/><rect class="cls-9" x="110" y="105.2" width="13.58" height="2.05" transform="translate(-24.35 176.94) rotate(-68.9)"/><rect class="cls-8" x="107.82" y="105.02" width="11.64" height="2.05" transform="translate(-26.17 173.97) rotate(-68.93)"/><rect class="cls-7" x="103.88" y="102.28" width="15.2" height="2.05" transform="translate(-25.03 170.14) rotate(-68.91)"/><rect class="cls-9" x="102.96" y="103.95" width="9.33" height="2.05" transform="translate(-29.02 167.67) rotate(-68.93)"/><rect class="cls-8" x="100.65" y="103.58" width="7.81" height="2.05" transform="translate(-30.61 164.63) rotate(-68.96)"/><rect class="cls-7" x="95.15" y="98.57" width="16.22" height="2.05" transform="matrix(0.36, -0.93, 0.93, 0.36, -26.8, 160.14)"/><rect class="cls-9" x="91.32" y="95.98" width="19.46" height="2.05" transform="translate(-25.81 156.4) rotate(-68.92)"/><path class="cls-5" d="M219,111.25a2,2,0,0,1-1.3,2.43l-16.15,4.89a1.94,1.94,0,0,1-2.42-1.3l-7.16-23.6a2,2,0,0,1,1.3-2.43l11.18-3.39,8.91,4.77Z"/><polygon class="cls-6" points="206.92 93.88 214.98 98.13 213.31 92.62 212.51 92.18 206.92 93.88"/><path class="cls-10" d="M204.41,87.85l1.51,5a2,2,0,0,0,2.43,1.3l5-1.5Z"/><rect class="cls-11" x="200.27" y="106.16" width="12.98" height="1.3" transform="translate(-22.09 64.54) rotate(-16.86)"/><rect class="cls-11" x="201.39" y="101.38" width="6.49" height="1.3" transform="translate(-20.8 63.74) rotate(-16.86)"/><rect class="cls-11" x="199.52" y="103.67" width="12.98" height="1.3" transform="translate(-21.4 64.23) rotate(-16.86)"/><rect class="cls-11" x="198.02" y="98.71" width="12.98" height="1.3" transform="translate(-20.02 63.58) rotate(-16.86)"/><rect class="cls-11" x="201.03" y="108.64" width="12.98" height="1.3" transform="translate(-22.78 64.88) rotate(-16.86)"/><rect class="cls-11" x="201.78" y="111.13" width="12.98" height="1.3" transform="matrix(0.96, -0.29, 0.29, 0.96, -23.47, 65.21)"/><rect class="cls-11" x="200.34" y="101.39" width="1.3" height="12.98" transform="translate(-22.65 62.92) rotate(-16.86)"/><rect class="cls-11" x="208.45" y="103.58" width="1.3" height="8.44" transform="translate(-22.27 65.26) rotate(-16.86)"/><rect class="cls-11" x="211.52" y="98" width="1.3" height="12.98" transform="translate(-21.19 66.02) rotate(-16.86)"/><g class="cls-12"><path class="cls-13" d="M197.56,60.36c9.19,5.28,16.46-.29,23.59-6.62,0,0,7.3,2.12,10,2.84a32.63,32.63,0,0,1,13.4,6.56,55.83,55.83,0,0,1,8.23,8.25C244,67.3,237,73.67,230.19,81c-.05-.24-4-1-8.63-2.92s-9.7-4.57-11.57-6.27A78.62,78.62,0,0,1,197.56,60.36Z"/></g><path class="cls-5" d="M198.32,58.94c10.38,6,18.27-2.07,26.26-9.61,0,0,6.34,4.39,8.83,5.94,3.44,1.95,8.28,3.72,12.58,6.86a51.26,51.26,0,0,1,7.95,7c-10.31-5.06-18.07,4.27-26,12.89,0-.2-3.67-.5-7.88-2.3-4.18-1.64-8.94-4.78-10.57-6.92C204.39,67.05,198.35,59.1,198.32,58.94Z"/><g class="cls-3"><g class="cls-3"><g class="cls-14"><g class="cls-3"><path class="cls-15" d="M339.5,105.63l-7-.4a55.47,55.47,0,0,0,16.7-29.6l7,.4c-2.71,12-8.05,21.52-16.69,29.6Z"/></g></g></g><path class="cls-16" d="M306.47,63.19l33,42.44c8.64-8.08,14-17.56,16.69-29.6-2.71,12-8.05,21.52-16.69,29.6Z"/><polygon class="cls-17" points="339.5 105.63 332.5 105.23 299.48 62.79 306.47 63.19 339.5 105.63"/><path class="cls-18" d="M306.47,63.19,356.19,76c-2.71,12-8.05,21.52-16.69,29.6Z"/><polygon class="cls-19" points="339.5 105.63 332.5 105.23 299.48 62.79 306.47 63.19 339.5 105.63"/></g><g class="cls-3"><polygon class="cls-13" points="356.36 69.64 349.37 69.25 299.65 56.41 306.64 56.81 356.36 69.64"/><path class="cls-20" d="M315.21,1.46c22.73,4,40.77,24.46,42.51,50.7a57.78,57.78,0,0,1-.52,13.08c-.22,1.44-.5,2.9-.84,4.41L306.64,56.81,302.92,1A47,47,0,0,1,315.21,1.46Z"/><polygon class="cls-13" points="306.64 56.81 299.65 56.41 295.93 0.57 302.92 0.97 306.64 56.81"/><g class="cls-3"><g class="cls-21"><g class="cls-3"><path class="cls-22" d="M302.92,1l-7-.4a46.47,46.47,0,0,1,7-.11l7,.39a48,48,0,0,0-7,.12Z"/></g></g></g></g><g class="cls-3"><path class="cls-9" d="M291.93,5.93l3.9,55.83,33,42.44c-11.88,11.1-26.18,15.58-41.16,13-1.37-.24-2.74-.53-4.12-.89-26.19-6.76-42.66-34.49-38.29-63.15.22-1.41.48-2.82.8-4.23C251.45,25.06,270,8.4,291.08,6,291.4,6,291.65,5.94,291.93,5.93Z"/><path class="cls-2" d="M293.26,117.82l-7-.4a48.32,48.32,0,0,1-5.56-.64c-1.37-.24-2.75-.53-4.13-.89-26.18-6.76-42.65-34.49-38.28-63.15.21-1.41.48-2.82.8-4.23C244.46,24.66,263,8,284.09,5.61c.32,0,.57-.07.85-.08l7,.4c-.28,0-.53,0-.85.08-21.12,2.39-39.63,19-45,42.9-.32,1.41-.58,2.82-.8,4.23-4.37,28.66,12.1,56.39,38.29,63.15,1.38.36,2.75.65,4.12.89A48.57,48.57,0,0,0,293.26,117.82Z"/><g class="cls-23"><g class="cls-3"><path class="cls-2" d="M293.26,117.82l-7-.4a48.32,48.32,0,0,1-5.56-.64c-1.37-.24-2.75-.53-4.13-.89-26.18-6.76-42.65-34.49-38.28-63.15.21-1.41.48-2.82.8-4.23,3.68-16.39,13.58-29.38,26.26-36.68l7,.39c-12.68,7.31-22.58,20.3-26.26,36.69-.32,1.41-.58,2.82-.8,4.23-4.37,28.66,12.1,56.39,38.29,63.15,1.38.36,2.75.65,4.12.89a48.57,48.57,0,0,0,5.56.64Z"/><path class="cls-2" d="M272.35,12.22l-7-.39a48.36,48.36,0,0,1,18.73-6.22c.32,0,.57-.07.85-.08l7,.4c-.28,0-.53,0-.85.08a48.51,48.51,0,0,0-18.73,6.21Z"/></g></g></g><path class="cls-11" d="M90.24,43.9c-8.53-1.59-24.55-3.35-29.84-.72s-2.81,19.32,2,23.22S86,71,91.52,70.93C105.35,70.71,100.17,45.76,90.24,43.9Z"/><path class="cls-11" d="M92.09,69.49s-.37,5.23-7.47,8.22c0,0,3.68-7.27.37-10.83C83,64.73,92.09,69.49,92.09,69.49Z"/><path class="cls-24" d="M399.77,268.34a18.68,18.68,0,0,1-.19-3.06c0-1.29,0-2.81-.07-3.43-.14-1.32,1.71-1.65,2-.53s.2,6.4-.95,6.87C400.1,268.38,399.65,268.47,399.77,268.34Z"/><path class="cls-8" d="M399.63,267.05c2.48.33,1.69-4,1.55-5.2s-.47-1-.37-1.8,1.3-.27,1.17,2.13c0,0,.37,9.84-1.27,8.47C399.51,269.65,399.6,267.05,399.63,267.05Z"/><path class="cls-24" d="M382,209.47c.66-.52,3.42,1.92,4.74,4.22,2.58,4.49,3.4,7,4.79,12.17,2.2,8.12,5.83,21,7.17,26.52,1.21,5,4.3,10.45.8,10.19-.75-6.92-5.13-17-7.6-22.24C383.48,222.35,380,211.07,382,209.47Z"/><path class="cls-24" d="M397.33,210.82c-.7-1.17-1.39-2.32-2.09-3.45-1.51-1.47-2.61-2.13-3.16-1.78-2.06,1.31-.54,12.18,15,33.82.78,1.09,12.87,20.45,12.65,19.94C414.15,246.14,407.64,228.18,397.33,210.82Z"/><path class="cls-8" d="M420.47,260.83c2.08,2,4.21,3.24,4.74,2.69s-.71-2.65-2.79-4.69-4.2-3.24-4.74-2.69S418.39,258.79,420.47,260.83Z"/><path class="cls-24" d="M419.59,259.49c1.3,1.71,3.11,2.64,3.65,2.1s-.28-2.12-1.88-3.56c-2-1.81-2.72-2.29-3.39-3.86S414.7,253.07,419.59,259.49Z"/><path class="cls-13" d="M381.31,118.69l4-9.42a7.73,7.73,0,0,1,7.12-.85c4.35,1.86,5.86,8.06,3.39,13.86s-8,9-12.35,7.13c-3-1.3-4.69-4.73-4.56-8.65A3.71,3.71,0,0,0,381.31,118.69Z"/><path class="cls-13" d="M397.75,129.12c-.25,1.61-2.29,2.64-4.56,2.29l-5.18-.78c-2.27-.35-3.92-1.93-3.67-3.54l2.22-14.7c.25-1.61,2.29-2.64,4.56-2.29l5.18.78c2.27.34,3.91,1.93,3.67,3.54Z"/><path class="cls-24" d="M383,131.76c-3.33.5-4.72-.3-2.69,1.26.74,1.64,15.25,3.5,16.47,2,.21-.26-5.26-2.61-5.23-2.83a18.52,18.52,0,0,1,2.21-7.42.44.44,0,0,0-.27-.49l-3.22-.78c-.18,0-2.39-.13-2.19,1C387.57,127.26,386.51,131.23,383,131.76Z"/><path class="cls-24" d="M384.24,123.24l-.06-.34a.43.43,0,0,0,0-.11l-.06-.43a.49.49,0,0,0,0-.12c0-.11,0-.22,0-.33s0-.13,0-.19,0-.19,0-.28a1.27,1.27,0,0,0,0-.2v-.38a2.71,2.71,0,0,0,0-.29,2.35,2.35,0,0,1,0-.26,2.45,2.45,0,0,1,0-.27,1.85,1.85,0,0,1,0-.23,1.09,1.09,0,0,0,0-.18h0a27.84,27.84,0,0,1,3.13-7.82.74.74,0,0,1,.92-.23c2.39.93,10,2.57,6.24,8.9h0s-.27.58-.4.83a.16.16,0,0,1,0,.07c-.13.25-.26.5-.41.74,0,0,0,0,0,0-.15.25-.29.48-.45.71,0,0,0,0,0,0-1.94,2.93-4.38,4.56-6.34,3.9a4.08,4.08,0,0,1-2.34-3.06h0a0,0,0,0,1,0,0l-.09-.37S384.25,123.27,384.24,123.24Z"/><path class="cls-24" d="M423.75,139.88s.46.38.78.05a8.38,8.38,0,0,0,1.23-2.55c.18-.59.59-3.5.59-3.5a3.38,3.38,0,0,0-1,1.9A15.11,15.11,0,0,1,423.75,139.88Z"/><path class="cls-24" d="M423.91,139.5c.73-.83.81-2.12.53-3.65a2.53,2.53,0,0,1,.4-2.15,17.36,17.36,0,0,1,.43,3.22,5.58,5.58,0,0,1-.13,2C424.57,140.73,422,141.65,423.91,139.5Z"/><path class="cls-24" d="M361,124.91c-4.47-5.09-11.18-27.5-11.18-27.5s1.05-4.92,14.07,23.31C364.55,122.13,362.11,126.17,361,124.91Z"/><path class="cls-24" d="M347.9,95.31c-.24-1.19-1.29-2.12-2.8-2.9a2.76,2.76,0,0,1-1.59-1.78,18.86,18.86,0,0,1,3.06,1.78c.59.39,1.17.81,1.73,1.24C350.12,95.07,348.5,98.37,347.9,95.31Z"/><path class="cls-24" d="M351.11,98.12c-1.39,0-3.25-1.84-3.68-2.16a5.62,5.62,0,0,0-2.16-1.06c1.32-1.2,3.22.49,4.32.54S351.91,98.12,351.11,98.12Z"/><path class="cls-24" d="M354,106.76c-.9-3.05-1.87-6.58-3-8-1.66-2-3.42-2.38-4-4.13a3.39,3.39,0,0,0-.24-.55c-.21-.49-.37-1.08-.49-1.27s-.57-.79-.3-.63c2.38,1.37,4.9,3.15,5.24,3.72.69,1.17,4.25,7.85,5.06,10.6C357.2,109.6,355.23,110.89,354,106.76Z"/><path class="cls-24" d="M347.28,94.56s.63-.2.5-.69a9,9,0,0,0-1.64-2.61c-.44-.51-2.9-2.58-2.9-2.58a3.78,3.78,0,0,0,1.19,2A16,16,0,0,1,347.28,94.56Z"/><path class="cls-24" d="M358.64,110.71c-.74,2.06,1.06,7.91-.09,8-3.44-5.3-6.71-21.67-6.71-21.67Z"/><path class="cls-24" d="M400.69,146c2.19,2.74,2.72,10.47,3.39,15.45a8.45,8.45,0,0,1-.51,4.61s-2.5,5.68-5.26-12.35C397.61,149.18,399.86,145,400.69,146Z"/><path class="cls-24" d="M401.4,165.18c1.62-6,16.49-18.84,16.49-18.84s6.87-3.25-9.52,17.13C403.45,169.59,401,166.65,401.4,165.18Z"/><path class="cls-24" d="M424.2,138.32l.38.41-.18,1.91a21.32,21.32,0,0,1-2.73,3.93c-1,.91-3.5,5.6-3.95,6.07s-3.4-.34-3.4-.34,3.63-4.11,4.93-5.86,2.3-4.89,2.78-5.59a21.84,21.84,0,0,0,1.18-1.87s.58.53-.6,2.5c-.32.52.43.59.43.59Z"/><path class="cls-9" d="M377.6,127.71l21.63,8L393,154.52c1,10.85,4.49,14.76,5.34,19.66,4.83,27.84,1.06,38.73,0,38.78-10.82,2.23-12.46,3.59-22.05,2.69-14.92-49.25,4.11-53.29-3.34-69.35C373.27,141.44,377.6,127.71,377.6,127.71Z"/><path class="cls-9" d="M361.48,125.19l16.66,10.32,7.43,2.54a2.83,2.83,0,0,0,1.44-1.2l.23-.37a3.25,3.25,0,0,0-1.55-4.4l-21.07-11.76Z"/><path class="cls-9" d="M398.94,162.05l-2.8-15.41,0-10.25a3,3,0,0,1,1.68-.71l.44-.05a3.08,3.08,0,0,1,3.37,2.77l2.73,20.92Z"/><path class="cls-24" d="M423.72,140.67a5.82,5.82,0,0,0,.91-2.37c0-.62-.66-3.5-.66-3.5a3.44,3.44,0,0,0-.26,2.13A11.69,11.69,0,0,1,423.72,140.67Z"/><path class="cls-24" d="M423,140.07s-.5,0-.62-.21a3,3,0,0,0-.07.46c-.05.29-.71,2.17-.71,2.17a16.9,16.9,0,0,1,1-1.58,8.13,8.13,0,0,0,.72-1.19c0-.05,0-.16.07-.27Z"/><path class="cls-24" d="M422.61,139.48c.8-1.32.79-2,.71-2.29-.19.31-.5.81-1,1.49a10.75,10.75,0,0,0-.68,1.46,2.66,2.66,0,0,1,.31,1.59c0,.22.69-.93,1-1.68C422.75,140,422.37,139.88,422.61,139.48Z"/><path class="cls-13" d="M395.79,111c.11-.07.22-.12.33-.18l.18,0a4.12,4.12,0,0,1,3.67,3.54c1.43,10.62,12.14,5.62,8.13,11.85-2.82,4.38-11.8,5-13.41,5.16a2.69,2.69,0,0,1-.74-.25C383.6,124.75,395.79,111,395.79,111Z"/><path class="cls-25" d="M408.74,68.24A49.3,49.3,0,0,0,386,77.47C380.7,81.62,378.2,86,379.09,90s5,7.23,10.34,10.12a63.47,63.47,0,0,0,19.38,6.38c14,2.44,26.85-4.33,29.72-17.48S427.79,65.18,408.74,68.24Z"/><path class="cls-25" d="M413.88,104.22s.23,5.24-6.48,9c0,0,2.82-7.65-.88-10.81C404.3,100.54,413.88,104.22,413.88,104.22Z"/><polygon class="cls-26" points="79.68 184.11 75.58 202.22 78.97 210.41 81.22 212.29 78.67 200.81 83.28 187.49 79.68 184.11"/><path class="cls-27" d="M74.86,203.38l.77,2.13.77-.09,2.22,6s1.18,3,2.16,3.8c.33.26,1.06-.31,1.08-.6.06-1.07-1.21-4.25-1.21-4.25s-.87.88-1.28.55-2-5-2.35-6.15a15.38,15.38,0,0,0-1.32-3.64C75.27,201.05,74.86,203.38,74.86,203.38Z"/><path class="cls-10" d="M80.14,175.84l-2.49,13.72L83.47,191l5.35-22s-.92-5.17-4.49-4C82,165.74,80.14,175.84,80.14,175.84Z"/><path class="cls-10" d="M83.69,161.79,64.44,148.31s-8.81-9.19-10.25-7.53c-2.08,2.4.78,16.27,1.9,17.84,2.21,3.11,28.6,16.61,32.14,12.21C91.53,166.72,83.69,161.79,83.69,161.79Z"/><path class="cls-28" d="M83.69,161.79,64.44,148.31s-8.81-9.19-10.25-7.53c-.18.2,8.49,5.87,8.38,6.22.89,4.63,5.79,11.84,6.53,12.76,2.1,2.6,9.77,4.77,18.6,5.61A17.48,17.48,0,0,0,83.69,161.79Z"/><path class="cls-24" d="M25.92,222.92s13.95-12.69,13.65-12.36-5.51-1.35-5.51-1.35L26.2,219.5Z"/><polygon class="cls-24" points="29.37 219.12 26.11 217.85 21.52 224.67 19.98 228.63 26.6 222.25 29.37 219.12"/><path class="cls-27" d="M24.22,217l-.68,1.54.79,1.23-3.83,5.43-2.05,5a1,1,0,0,0,.65,0c.93-.52,3.38-3.88,3.38-3.88s-1.2-.26-1.15-.78,3.08-4.67,3.89-5.61c1.39-1.62,2.13-1.85,2.07-2C27.12,217.59,24.22,217,24.22,217Z"/><path class="cls-28" d="M51.13,188.57l-18.3,20.58,3.7,5.3,27.41-27.1s1.4-5.84-2.73-6.86C58.8,179.9,51.13,188.57,51.13,188.57Z"/><path class="cls-28" d="M66.13,175.78,64.06,147.3s-4.57-6.1-6.8-7c-8.34-3.38-9.75,7.08-9.27,10.3.65,4.29,1,5.68,4.46,16.5,4.51,14,3.9,20.46,10,20.38C68.23,187.4,66.13,175.78,66.13,175.78Z"/><path class="cls-24" d="M92.21,92.64s1.52.74,5.68-7.26,8.49-20.69,8.49-20.69L95.2,82.33S91.21,89.26,92.21,92.64Z"/><path class="cls-24" d="M103.64,71.27c2.09-3.75,4.68-4.4,6-5.58a30.7,30.7,0,0,1,3-2.22c-1.92,0-2.63,1.2-3.44,1.54s-.49.31.17-1.07c.37-.79,2.32-1.44,3.53-2a3.6,3.6,0,0,0,1.38-1,17.76,17.76,0,0,0-3.44,1,22,22,0,0,0-4.45,2.45,18.42,18.42,0,0,0-3,5C102.54,71.49,102.13,74,103.64,71.27Z"/><path class="cls-24" d="M106.36,64.57a25.22,25.22,0,0,1,2.88-2.81c.43-.21,2.64-.89,2.64-.89a4.54,4.54,0,0,1-1.62,1.31A37.56,37.56,0,0,0,106.36,64.57Z"/><path class="cls-29" d="M91,87.43s-3.64,7.48.52,9.2c2.37,1,4.06-.24,5.13-2.52,2-4.23,4-9.15,4-9.15l-4.89-5.51Z"/><path class="cls-29" d="M87.71,92,73.2,102.55s-3.21,3.8-2.33,5.31c1.27,2.17,4.43.85,5.85.44,2.82-.81,1.6,0,10.09-5.93,7.75-5.43,11-7.58,8.62-11.35C93.2,87.49,87.71,92,87.71,92Z"/><path class="cls-20" d="M85.47,95.31a7.33,7.33,0,0,1-8.6,5.79l-1.13-3.77A7.33,7.33,0,0,1,70,88.74l.53-2.7a7.33,7.33,0,0,1,8.59-5.79l1.8.36a7.33,7.33,0,0,1,5.79,8.59Z"/><path class="cls-20" d="M70,88.74l.53-2.7a7.33,7.33,0,0,1,8.59-5.79l1.8.36a7.29,7.29,0,0,1,4.07,2.33,16.66,16.66,0,0,1-1.32,4.84c-2.23,5-6.5,8.21-10.6,8.42A7.32,7.32,0,0,1,70,88.74Z"/><path class="cls-20" d="M76.64,100.84c1-5.17-6.66-16.5-7.73-11.23C67.47,96.67,42.5,101.28,42,104c-1,5.4,9.39,21.71,20.86,20.08,5.57-.78,10.34-4.82,11.4-10.22a9.84,9.84,0,0,0-1.38-7.17A9.4,9.4,0,0,0,76.64,100.84Z"/><path class="cls-13" d="M76,113.67a9.92,9.92,0,0,1-11.73,7.72c-5.45-1.06-10.25-8-9.21-13.33s7.53-7,13-6A9.94,9.94,0,0,1,76,113.67Z"/><path class="cls-13" d="M68.34,96.47c3.94-1.9,7.8-3.89,8.9-1.31s-1.27,6.06-5.3,7.77-10.33,10.32-11.42,7.74S50.38,105.16,68.34,96.47Z"/><path class="cls-24" d="M84.65,84.18a13.82,13.82,0,0,1-.56,2c-1.63,4.48-5.12,7.43-8.27,7.27a22.36,22.36,0,0,1-2.11,5.37A11.17,11.17,0,0,1,70.27,102c-1.14,3.12,8.91,10,8.75,9.42s-2.12-4.89-2.33-8.55a7.23,7.23,0,0,1,2.24-5.6,6,6,0,0,1,4.59-1.17.85.85,0,0,0,.66-.14,5.18,5.18,0,0,0,.52-1.46l1.16-5.93A5.2,5.2,0,0,0,84.65,84.18Z"/><path class="cls-19" d="M63.65,148.42l3.28,1.37s4.68-13.52,6.32-19.2,2.56-7.35,3.62-8.84,2.74-3,2.55-5.37-.4-6.11-.94-6.66a9,9,0,0,1-2.24-3.18C76,105.84,63.65,148.42,63.65,148.42Z"/><path class="cls-2" d="M65.28,149.61S69,135.87,71,129s4.93-17.36,5.41-19-1-4-1-4-2.74-5.83-3.3-5.9c-2.42-.29-5.45,2.61-8.59,6.91s-2.87,20.54-3.42,21.69S50.3,137.32,49,140.13s-1.52,3.2-1.52,3.2S51.45,150.89,65.28,149.61Z"/><polygon class="cls-29" points="72.26 98.42 73.57 100.46 75.77 106.35 73.51 106.1 70.67 99.31 72.26 98.42"/><path class="cls-24" d="M89.77,128.78s7.63-.67,8.7-2.85a18.34,18.34,0,0,0,.9-2.21c.6-1.56.78-1.82,1.32-3a10.45,10.45,0,0,1,.64-1.33s.63.39.53.91-.55,1.49-.61,1.89.4-.85,1.57-2.43a29.24,29.24,0,0,1,3.15-3.56c.4-.36.46-.4.48-.39.21.13.39.26.3.49s-.53.8-.47.78a9.76,9.76,0,0,0,1.3-1c.16-.15.36-.37.51-.49s.58.14.4.76a.9.9,0,0,1,.14.48c0,.1,0,.18-.07.27s-.1.23-.13.34a7.59,7.59,0,0,1-.52,1.16,11.79,11.79,0,0,0-.86,1.38s.83-.84.89-.78a.56.56,0,0,1,.11.62c-.23.3-.56.76-1.53,2a12.09,12.09,0,0,0-2.34,3.52c-.8,1.73-.37,1.78-1.52,2.65-1.54,1.17-9.32,4-10.64,4.66S89.77,128.78,89.77,128.78Z"/><path class="cls-29" d="M86.19,128.3,75,109.66s-3.79-5.38-6.26-2.38a8.54,8.54,0,0,0-2.18,4.36s1.57,4.52,7.68,14.59,5.87,10.68,12.69,9.49a39.32,39.32,0,0,0,8.61-2.37l-.6-5.93Z"/><path class="cls-30" d="M73.13,56.49a2,2,0,1,1-2-2A2,2,0,0,1,73.13,56.49Z"/><path class="cls-30" d="M80.4,56.49a2,2,0,1,1-2-2A2,2,0,0,1,80.4,56.49Z"/><path class="cls-30" d="M87.66,56.49a2,2,0,1,1-2-2A2,2,0,0,1,87.66,56.49Z"/><rect class="cls-30" x="395.89" y="81.03" width="9.81" height="1.53"/><rect class="cls-30" x="407.27" y="81.03" width="9.41" height="1.53"/><rect class="cls-30" x="413.05" y="81.03" width="8.24" height="1.53"/><rect class="cls-30" x="395.89" y="85.72" width="4.22" height="1.53"/><rect class="cls-30" x="401.88" y="85.72" width="14.41" height="1.53"/><rect class="cls-30" x="417.86" y="85.72" width="4.9" height="1.53"/><rect class="cls-30" x="395.89" y="90.41" width="9.81" height="1.53"/><rect class="cls-30" x="407.27" y="90.41" width="6.57" height="1.53"/><path class="cls-13" d="M251.74,249.42a13.26,13.26,0,0,0-1,2.8s3.58,2.24,5.14,1.73a9.22,9.22,0,0,0,2-1.52c.14-.12.58-.94.71-1.06s.19.24.41,0a10.3,10.3,0,0,0,1-1,30.78,30.78,0,0,0,2.26-7.21s-2.35-4-3.72-2C255.38,246,252.8,247.85,251.74,249.42Z"/><path class="cls-31" d="M321.21,144.94s3.08,4.79-10.38,13.83-15,5.46-15,5.46l-3.12-2.93-.56-12.65,5.83-.36.49.82a2.16,2.16,0,0,0,1.93-.43c.75-.76,5.09-3,11.83-9.21C315.3,136.61,320.63,144,321.21,144.94Z"/><path class="cls-11" d="M321.21,144.94c-.45-.71-3.36-2.33-3.06-1.86,0,0,3.08,4.79-10.39,13.82-7.51,5-11.32,6.15-13.22,6.16l1.25,1.17s1.58,3.57,15-5.46S321.21,144.94,321.21,144.94Z"/><path class="cls-24" d="M292.92,149.5s-11.69-2.17-10.58-14.53c.33-3.68-1.18-.32-2.4,3s-.72,13.48,4.89,18.46,8.12,6.38,10.81,5.19S292.92,149.5,292.92,149.5Z"/><path class="cls-32" d="M257.49,242.75s5,2.42,7.37.84c5.48-3.61,11.65-13.19,14.84-18.84a66.13,66.13,0,0,0,6.21-14.55l-7.22-7.51Z"/><path class="cls-13" d="M285.17,273.57a13.08,13.08,0,0,1-1.9,2.28s-3.76-1.92-4.11-3.53a8.94,8.94,0,0,1,.26-2.53c0-.18.51-1,.54-1.15.07-.33-.3,0-.23-.33a12,12,0,0,1,.37-1.38,30.62,30.62,0,0,1,5-5.63s4.66,0,3.6,2.18C286.25,268.7,286,271.86,285.17,273.57Z"/><path class="cls-32" d="M281.65,263.51s5,2.42,7.37.85c5.47-3.62,11.65-13.2,14.83-18.85A66.57,66.57,0,0,0,310.07,231l-7.22-7.51Z"/><path class="cls-32" d="M311.88,175.93l-33.17,26.73,1.89,10.12a61.39,61.39,0,0,0,21.73-10c4.43-3.28,14.06-11,15.34-16.08C319.41,179.84,311.88,175.93,311.88,175.93Z"/><path class="cls-32" d="M325.3,183.52,310.07,231l-11.29.25s2.42-10.33,6.61-25.67c2.09-7.61-.52-21.49,3.31-25C313.89,175.73,325.3,183.52,325.3,183.52Z"/><path class="cls-31" d="M304.53,181.46l20,4.55,12.82-26.13s8.12-15.75-2.06-17.67-21.95-3.9-21.95-3.9S301.63,150.66,304.53,181.46Z"/><path class="cls-24" d="M361.55,171.22,380.74,168s1.68,1.47.18,1.76c-.18,0-.27-.71-1-.26-2.94,1.82-8.7,6.74-12.22,7.76a44.2,44.2,0,0,1-9.29,1.54Z"/><path class="cls-10" d="M322.61,143.75s-3.18,16.84-15.61,29.18c-1,1-3.83.25-3.83.25l.9-3.71S316.48,156.35,322.61,143.75Z"/><polygon class="cls-11" points="322.97 143.47 322.89 146.96 329.67 142.4 329.51 141.28 322.97 143.47"/><path class="cls-11" d="M301.62,153.11l-1.06-3-.5-1.19a2.28,2.28,0,0,1-1.63.2l1.21,2.1,1,2.73.15,3.94Z"/><path class="cls-31" d="M347.63,153.92l13.59,15.59-.22,1.57,1.54-.07-2.89,8-7.37,0L334.1,157.37a17.43,17.43,0,0,1,.41-13.81C337,137.93,346.46,152.69,347.63,153.92Z"/><path class="cls-11" d="M355.46,177.19s3.76-4.42,5.64-6.79l-.1.68,1.54-.07-1,2.76-2,3.71-1.68-.21.34-1.22Z"/><path class="cls-24" d="M331.22,137.55a21.28,21.28,0,0,1-1.65,3.47c-.91,1.39-7,2.34-7.93,2.4s1-4.44,1.15-5.51c.14-.81.62-.47.18-1.75Z"/><path class="cls-24" d="M321.75,133.52a1.7,1.7,0,0,0,1.07,2.15l7.25,2.44a1.69,1.69,0,0,0,2.15-1.06l3.62-10.74a1.7,1.7,0,0,0-1.07-2.15l-7.25-2.44a1.7,1.7,0,0,0-2.15,1.06Z"/><path class="cls-13" d="M324.61,125a6.46,6.46,0,0,1-.58-2.06,2.52,2.52,0,0,1,1.71-1.67c1-.2,1.34.9,1.34.9s-1.53.28-1.69.53S324.61,125,324.61,125Z"/><path class="cls-20" d="M335,131.39s2.48-3.76,2.69-5,.35-2.16-1.07-2.79c-2.15-.95-2.33-.49-3.18-1.52s-2.23-3.3-2.84-3.69a2.35,2.35,0,0,0-3.65,1.2,2.45,2.45,0,0,1-1.65,1.64c0,.21.37.53.95,1.11,1.68,1.69,2.82,2.3,4.49,2.42s4.85.21,4.8,1.46-1.36,4.7-1.31,5S334.61,131.5,335,131.39Z"/><path class="cls-24" d="M331.87,131.46h3a.57.57,0,0,1,.57.57v1.65a.57.57,0,0,1-.57.57h-3a.56.56,0,0,1-.56-.56V132a.57.57,0,0,1,.57-.57Z" transform="translate(100.94 406.28) rotate(-71.36)"/><rect class="cls-24" x="321.97" y="128.31" width="4.15" height="2.78" rx="0.57" transform="translate(97.55 395.28) rotate(-71.36)"/><path class="cls-20" d="M333.94,132.1s-1.43,4.22-1.9,5.63-1.88,3.9-9.08,1.47c-4.26-1.43-3-4.51-2.7-5.54a9.66,9.66,0,0,1,2.54-3.13s-.59,1.75-.59,1.75a3.61,3.61,0,0,1,3.49-.72c3.27,1.1,3.36,3.26,4.81,3.72C331.63,135.62,333.07,134.09,333.94,132.1Z"/><path class="cls-24" d="M326.11,134.79l-2.24-.76a.55.55,0,0,1-.35-.71l.1-.32,3.31,1.12-.1.31A.57.57,0,0,1,326.11,134.79Z"/><path class="cls-24" d="M282.18,137.05s1.73-3.57,1.32-4.6-2.18-4.69-2.18-4.69l-.53-.89s-1.25.11,0,2.56,0,1.61,0,1.61l-1.89-1.75-2.48-1.95-1-1s-.52-.63-.76-.66c-.71-.09-.53.53-.53.53l3.55,4.31-4.3-3s-.61-.29-.87,0-.06.39-.06.39l4.09,4.64-2.39-1.28s-.6-.26-.86,0a3.29,3.29,0,0,1-.37.34l8.53,6.29Z"/><path class="cls-24" d="M276.85,131.15l-3.14-1.92a2.85,2.85,0,0,0-1.1-.54.5.5,0,0,0-.57.44l4.46,3.4Z"/><path class="cls-24" d="M378.14,169.61s-.13-4,.67-4.74,3.9-3.4,3.9-3.4l.84-.6s1.1.61-1,2.36-.66,1.47-.66,1.47l2.44-.83,3.06-.77,1.32-.52s.73-.36,1-.29c.68.21.26.69.26.69l-5,2.5,5.15-1s.67,0,.8.34-.1.39-.1.39l-5.63,2.57,2.7-.2s.66,0,.79.35.2.46.2.46l-10.35,2.27Z"/><path class="cls-24" d="M385.41,166.39l3.65-.48a2.87,2.87,0,0,1,1.23,0,.52.52,0,0,1,.34.64l-5.46,1.29Z"/><polygon class="cls-11" points="321.5 140.96 319.73 145.23 322.7 143.42 321.5 140.96"/><path class="cls-27" d="M151,273.2c.36-.37.2-1.41.2-1.41s-5.56-1.08-7.4-.8a9.89,9.89,0,0,0-2.08.79c-.13.06-.39.47-.52.53s-.33-.12-.54,0a6.37,6.37,0,0,0-.9.52c-.7,2.54-.13,3.63-.13,3.63s4.51,1.8,5.64.93C148.11,275.18,150.2,274,151,273.2Z"/><path class="cls-27" d="M178.86,270.17l.63,4.22,4.28.18s.26-.59.62-.57.67.62,1.09.64l2.29.09,8.57.36s.23-.87,0-1.19a4.08,4.08,0,0,0-1.29-.61c-2.18-.71-8.42-2.91-9.43-5.07C184.4,265.6,178.86,270.17,178.86,270.17Z"/><path class="cls-24" d="M167.15,131.91l-.66-5.14s3.51-.9,3.54-3c.1-4.15-3-9.67-4.4-11-3.9-3.92-7.67-11.83-16.22-1.62-3.26,3.88,7.17,13.82,8.53,16.28a11.77,11.77,0,0,1,1,5.94l3.16,1Z"/><path class="cls-26" d="M144.92,166.64l21.39,6.2s-12.65,2.82-23.23.55S143.89,166.75,144.92,166.64Z"/><path class="cls-13" d="M153.93,219s7.39,11.51,4.27,20.63c-5.56,16.21-8.87,28.42-10.72,33.85-.72,2.11-1.3,1.67-1.3,1.67l-4.71.14-2.06-2.1,9.7-37.35Z"/><path class="cls-24" d="M199.94,130.5l13.18-16s-5.05,22-12.2,23.75S199.94,130.5,199.94,130.5Z"/><path class="cls-33" d="M158.06,131.41s-4.44,1-13.39,18.27-7,17.19-7,17.19l-1,4.32,6.6,3.11,9.15-14.44Z"/><path class="cls-13" d="M176.18,188.39s-12,36.66-20.45,56.54c-4.94,11.63-5.86-4.8-5.86-4.8l9.68-64.8,22.36-1.06S179.58,177.22,176.18,188.39Z"/><path class="cls-13" d="M161.24,186.61s23,43.67,24.5,46c5,7.79,6.41-4.45,6.68-7.53s-3.45-24.46-7.67-39.67l-4.23-15.21Z"/><path class="cls-13" d="M182.25,217.75s-1.5,6.79-2.88,15.49c-1,6.39-1.79,24.73-1.13,37.51,0,.78,8.23-1.25,8.23-1.25S190.9,234,191.91,226,187.57,212.26,182.25,217.75Z"/><path class="cls-34" d="M151.63,138.19l5.46-5.8,2.31-3.1,10.07-1.4L171.6,131l8.26,3s2.32,3.22,2.07,16.16c-.28,14.35,6.86,34,4,36.15-18.74,14.06-28.66,3.05-28.66,3.05S147.7,162.28,151.63,138.19Z"/><path class="cls-34" d="M166,135.9s-1.13,2.4,5.49,4.29c11.3,3.21,23.14,2.07,25.46,1.92s5.56-.46,7.75-4.66c1.68-3.21,2.25-4.26,2.25-4.26l-6.36-4.48-1.42,1.73-.61,1.06s-8.58-.23-16.59-1S166,135.9,166,135.9Z"/><path class="cls-20" d="M163.06,115.18s-1.47-.34-1.34.66,1.48,2.84,2.11,2.84,1.67,2.46,1.67,2.46l-.55,3.32L157.36,127s-2.69-.23-3.45-1.86-6.67-12.88-6.67-12.88l4.39-4.63a36.83,36.83,0,0,1,4.12-3.58c2.72-1.89,3.9-.49,4.09.38s1.17.65,2.38.24,3,0,2.57.8c-.19.32,1.27.65,1.1,1.71-.26,1.51-2.42,2.71-1.91,4.83C164.22,113,164.88,116.23,163.06,115.18Z"/><path class="cls-24" d="M212.29,118.91s-3.18-1.5-3.41-2.48-.83-4.62-.83-4.62l-.06-.94s1-.66,1.37,1.79.85,1.15.85,1.15l.5-2.36.84-2.85.22-1.3a2.38,2.38,0,0,1,.23-.92c.48-.48.66.06.66.06l-.39,5.15,1.65-4.66s.32-.57.65-.52.26.24.26.24l-.64,5.7,1.12-2.31s.32-.55.64-.52l.46,0L213.3,119Z"/><path class="cls-35" d="M216.34,226.2c-20.84,8.08-6.76-.26-6.84-.65-.24-2.26,5.28-.24,5.38-4.74A63.53,63.53,0,0,1,219,201.17a8.87,8.87,0,0,1,1.2-2.38c4-1.7,8.3-2.15,12.58-3.23a11.06,11.06,0,0,1,4.59,2.6c5.95,5.49,10.74,4.71,12.63,7.75s6.34,7.38,7.31,9C247.19,226.49,229.11,221.41,216.34,226.2Z"/><path class="cls-26" d="M249,270.37s-.59-1.51-1.17-3.63a32,32,0,0,1-.38-7.1,60.48,60.48,0,0,0-.51-8.09c-1.37-1.22.39,10.77-3.27,12.62-1,.53,4.17,6.15,4.49,6.51S249.2,270.42,249,270.37Z"/><path class="cls-26" d="M246.48,214.69c-.61.71-2.92,2.65-3.45,4.94a29.07,29.07,0,0,0-.84,11.45c.76,7.35,2.2,19.07,2.88,24,.61,4.45-.65,11.24,1.42,9.27.9-6.31,2.1-7.25,2.84-19.47C251.44,210,247.57,213.43,246.48,214.69Z"/><path class="cls-20" d="M248.59,269.16c-.93,1.12-3.08-2.69-3.46-3.8a12.67,12.67,0,0,0-.68-1.68,1,1,0,0,0-.08-.11l-.09.05c-.62.46-1.64.81-.9,1.8l4.67,6.2C251.86,276.69,248.61,269.13,248.59,269.16Z"/><path class="cls-26" d="M228.64,190.1c-1.43.57-3.56.11-3.53,2.23.07,5-.51,7.13,5.73,15,19,23.95,12.1,7.68,17.87,11.42,1.61-2.92-1.61-8.9-7.35-17.48S233,188.35,228.64,190.1Z"/><path class="cls-24" d="M246.31,208.36c-.3-1.37-.58-2.71-.85-4,.1-2.16.46-3.43,1.11-3.55,2.46-.45,8.91,8.72,12.45,35.72.18,1.35,4.67,24.26,4.48,23.74C258.41,246.5,250.73,228.53,246.31,208.36Z"/><path class="cls-20" d="M260.58,258.22c1.37,2.64,1.67,7.56,3.6,7.27.78-.11.08-2.86-.49-6.22-.5-2.93-1.35-5.07-2.09-4.79S258.61,254.44,260.58,258.22Z"/><path class="cls-24" d="M261.83,258.56c.68,1.5,1.43,4.08,2.17,3.81a14.54,14.54,0,0,0-.39-3.66c-.58-2.64-1-3.71-1.52-5.39-.63-2.15-1.47-2.87-1,1A12.13,12.13,0,0,0,261.83,258.56Z"/><path class="cls-24" d="M220.23,207.73c0,2.12.67,2.08,2.49,3.38A15.17,15.17,0,0,0,236.36,213a31.69,31.69,0,0,0,11.89-7.06c.76-.74.58-4.38-.2-4.69-2.48-1-7.12-1.51-10.05-1.82C226,198.16,220.24,201.2,220.23,207.73Z"/><path class="cls-10" d="M235,145.61a8.16,8.16,0,0,1-9.57,6.44l-1.26-4.19c-4.43-.86-6.71-8.22-5.85-12.64l.59-3a8.15,8.15,0,0,1,9.57-6.44l2,.39a8.17,8.17,0,0,1,6.45,9.57Z"/><path class="cls-13" d="M234.05,152.55c7.61,5.57,12.71,21.45,12.71,21.45s-1.76,3.76-3.26,3c-1.91-1-7.57-8.45-14.11-19.34C225.34,150.9,232.78,151.62,234.05,152.55Z"/><path class="cls-13" d="M245.93,175.62c4.34-4.55,2.55-12.62,2.55-12.62a3.47,3.47,0,0,0-2.53.44c-1.23,1-2.06,3.65-3.66,9.85C241.31,177.12,245.21,176.38,245.93,175.62Z"/><path class="cls-24" d="M246.1,168.58s1.21.25,3-4.73a34.54,34.54,0,0,0,1.53-11.09l-4,9.66S244.86,166.78,246.1,168.58Z"/><path class="cls-10" d="M221.26,130.7a16.3,16.3,0,0,0-1.55-1.11,14.42,14.42,0,0,1-1.35,2,15.44,15.44,0,0,1-20.27,3.07,15.62,15.62,0,1,0,23.17-3.94Z"/><path class="cls-24" d="M234.68,130.13a15.4,15.4,0,0,1-.63,2.22c-1.81,5-5.7,8.28-9.21,8.1-.56,2.31-1.77,4.16-2.34,6-1.23,3.95-5.79,3.51-5.79,3.51-1.28,3.47,11.88,11.2,11.7,10.57s-2.36-5.45-2.59-9.53a8.05,8.05,0,0,1,2.49-6.23,6.64,6.64,0,0,1,5.11-1.3.93.93,0,0,0,.73-.17,5.49,5.49,0,0,0,.58-1.62l1.29-6.6A5.78,5.78,0,0,0,234.68,130.13Z"/><path class="cls-24" d="M209,169.46l-3.72-12.82c-1.11-3.81.84-6.92,4.32-6.9l19.68.1c2.14.21,4.65,4.37,3,8.17l-7.08,12Z"/><path class="cls-13" d="M209.85,150.75c1.47,12.38-13.81,26-13.81,26s-3.83-.69-3.85-2.51c0-2.31,4.19-6.29,11-18.8C207.43,147.69,209.65,149,209.85,150.75Z"/><path class="cls-36" d="M222.3,186.39c-.52,2.64-1.28,5.79-2.42,5.51l-7.71-2.69c-1.15-.28-5-.64-4.5-3.27l-.1-11.36c.52-2.63,1.87-4.54,3-4.26l15.57-3c1.14.28,1.65,2.65,1.13,5.28Z"/><path class="cls-36" d="M231.49,155.67a9.35,9.35,0,0,0-.31-2.14c-10.88,5.53-16.92,1.16-21.47-1a8.6,8.6,0,0,0-.29.94c-.9,3.6-1.4,7.28-2.26,10.89-.71,2.86,2.5,6.1,4.26,6.51,6.59,1.58,8.19,1.43,15,.75,1.82-.18,5.61-2.64,5.48-5.42Q231.65,161,231.49,155.67Z"/><path class="cls-20" d="M216,149.51s-7.58-1.73-9.63,1.67.16,9.34.16,9.34.61,7.15.43,10.92-3.2,6.81-2.34,6.24a15.6,15.6,0,0,0,4.87-.37c3-.75,2.45-6.05,2.5-7.72s.25-9.87.8-11.13S216,149.51,216,149.51Z"/><path class="cls-20" d="M233.57,156.2c-.29-2.6-1.81-6.9-3.34-6.76s-3.27.2-3.27.2,4.6,3.17,2.37,13.58c-.38,1.78-.83,5.4-2,8.06a66.86,66.86,0,0,0-2.41,8.05s2.89,1.21,2.94,1.68a26.14,26.14,0,0,1,2.38-7.33C235.19,164,234.11,161,233.57,156.2Z"/><path class="cls-31" d="M218.47,157.58l.68,1,.7-.48,4.54,6.58-5.83,4a1.64,1.64,0,0,1-2.3-.26l-2.82-4.08a1.65,1.65,0,0,1,.58-2.24l.44-.31-.68-1a1.17,1.17,0,0,1,.41-1.58l2.66-1.83A1.15,1.15,0,0,1,218.47,157.58ZM214.7,160a.19.19,0,0,0-.07.25l.69,1,3-2.06-.68-1a.19.19,0,0,0-.26,0Z"/><path class="cls-24" d="M205.09,167.36c1.82-2.12,3.43-4.7,4.89-5.43,2.07-1.05,3.59-.67,4.64-1.89a4.25,4.25,0,0,1,.39-.35c.35-.32.69-.73.85-.84s.74-.43.47-.4a21.48,21.48,0,0,0-5.53,1.1,69,69,0,0,0-7.86,6.67C201.09,168.38,202.63,170.23,205.09,167.36Z"/><path class="cls-24" d="M210.11,161.3s-.49-.3-.27-.7a7.78,7.78,0,0,1,2-1.86c.48-.34,3-1.56,3-1.56a3.32,3.32,0,0,1-1.45,1.45A14.27,14.27,0,0,0,210.11,161.3Z"/><path class="cls-24" d="M199.56,169a24.06,24.06,0,0,0,2.57,1.51c4.74-5.61,8.5-10.57,8.5-10.57Z"/><path class="cls-24" d="M212.67,158.91l3.63-1.67,1.18,1.06.08.58-.31.3s-.33,0-.3,0-.48.5-.58.35-.56.6-.69.63c-.34.07-.64-.46-1.35-.29s-1.17.93-1.42.66S212.67,158.91,212.67,158.91Z"/><path class="cls-13" d="M200.83,167.72c.54-.26,2.58,2.35,1.94,3.26l-.41.75s-3.82,6.31-6.88,4C195.48,175.77,193.5,172.4,200.83,167.72Z"/><path class="cls-33" d="M257.27,214.86c-.08-.54-2.8-8.21-3.67-9.36-4.17-5.53-28.11-23.2-30.72-22.81-5.93.86-11.9.41-15.63,2.9-.05,1.9-5.48,7-4.4,10.12,4.13,11.69,20.11,6.91,7.84,22.62-3.95,5.06-7.63,9.56-6.83,12.46C211.83,236.76,245.15,210.21,257.27,214.86Z"/><path class="cls-24" d="M250.91,154.12a8.28,8.28,0,0,0-.46-1.81,26.44,26.44,0,0,0-1.37-3.9,21.43,21.43,0,0,1-.88-2.6c-.43,1.35.24,2.12.29,2.77s.11.41-.71-.37c-.47-.44-.47-2-.6-2.94a2.79,2.79,0,0,0-.39-1.2,12.84,12.84,0,0,0-.11,2.64,16.48,16.48,0,0,0,.69,3.68,27.78,27.78,0,0,0,1.73,3.1,5.22,5.22,0,0,1,.32,4.06C249.05,158.62,250.79,156.3,250.91,154.12Z"/><path class="cls-24" d="M247.53,150.47a18.82,18.82,0,0,1-1.31-2.66c-.05-.36,0-2.06,0-2.06a3.42,3.42,0,0,1,.54,1.44A26.45,26.45,0,0,0,247.53,150.47Z"/><path class="cls-19" d="M278.12,107c2.85-9.33-.46-18.6-10.63-21.7S249.39,88,246.55,97.34c-2.22,7.27,2.11,11.35,4.59,18.71.5,1.45-1.79,5.88-1.79,5.88l12.72,3.88s.57-5,1.79-5.88C270,115.22,275.9,114.25,278.12,107Z"/><path class="cls-37" d="M249.13,121.86l-.53,1.75a5.49,5.49,0,0,0,3.65,6.87l2.63.8a5.5,5.5,0,0,0,6.87-3.65l.54-1.76Z"/><polygon class="cls-38" points="271.03 104.65 270.12 102.24 267.3 104.26 266.08 101.01 263.26 103.02 262.05 99.78 259.23 101.79 258.02 98.55 255.94 100.04 255.13 98.92 258.68 96.38 259.89 99.63 262.71 97.61 263.93 100.86 266.75 98.85 267.96 102.09 270.78 100.08 272.32 104.17 271.03 104.65"/><polygon class="cls-38" points="254.71 123.32 253.39 122.92 256.73 111.99 256.47 102.51 257.85 102.47 258.11 112.17 258.08 112.28 254.71 123.32"/><polygon class="cls-38" points="258.75 124.55 257.43 124.15 260.83 113 260.9 112.91 266.46 105.11 267.58 105.91 262.08 113.62 258.75 124.55"/><rect class="cls-38" x="276.98" y="79.56" width="9.59" height="1.38" transform="translate(30.69 231.22) rotate(-46.92)"/><rect class="cls-38" x="267.71" y="74.57" width="9.59" height="1.38" transform="translate(92.93 293.61) rotate(-66)"/><rect class="cls-38" x="260.67" y="68.14" width="1.38" height="9.59" transform="translate(-0.49 1.76) rotate(-0.39)"/><rect class="cls-39" x="255.62" y="121.5" width="1.43" height="8.6" transform="translate(61.21 334.26) rotate(-73.03)"/><rect class="cls-39" x="253.72" y="124.82" width="1.43" height="6.19" transform="translate(57.83 333.93) rotate(-73.03)"/><path class="cls-39" d="M249.33,128.3a5.44,5.44,0,0,0,2.92,2.18l2.63.8a5.45,5.45,0,0,0,3.64-.17Z"/><path class="cls-40" d="M296.48,196.49l0,0,.37-.87-35.83-16-.39.87v0l0,.21c.13.95.89,1.46,1.84,1.88l31.18,13.93a2.57,2.57,0,0,0,2.63.11Z"/><path class="cls-41" d="M287.78,192.78a0,0,0,0,0,0,0l0,.17a1.68,1.68,0,0,0,.33.67l5.45,2.43a2.71,2.71,0,0,0,2.47.25l.14-.09,0,0,.18-.43-8.3-3.71Z"/><rect class="cls-41" x="273.9" y="176.28" width="0.67" height="19.61" transform="translate(-7.51 360.59) rotate(-65.93)"/><path class="cls-40" d="M288.06,191.62l3.22-19.68a1.28,1.28,0,0,0-.68-1.32l-25.15-11.23a.68.68,0,0,0-1,.57l-3.22,19.68Z"/><path class="cls-41" d="M278,176.05a1.33,1.33,0,0,1-1.93,1.09,2.49,2.49,0,0,1-1.33-2.55,1.33,1.33,0,0,1,1.93-1.09A2.49,2.49,0,0,1,278,176.05Z"/><rect class="cls-42" x="155.52" y="46.5" width="5.01" height="5.37" transform="translate(-5.64 73.75) rotate(-25.83)"/><rect class="cls-43" x="154.89" y="46.64" width="5.01" height="2.51" transform="translate(-5.15 73.34) rotate(-25.82)"/><path class="cls-44" d="M161.24,45.34a1,1,0,0,1-.46,1.32l-6.45,3.12a1,1,0,0,1-1.31-.46l-2-4.19a1,1,0,0,1,.45-1.32l6.45-3.12a1,1,0,0,1,1.32.46Z"/><polygon class="cls-30" points="154.83 48.44 153.78 48.95 151.67 44.6 152.73 44.08 154.83 48.44"/><rect class="cls-30" x="154.33" y="43.34" width="0.99" height="4.84" transform="translate(-4.48 71.98) rotate(-25.81)"/><rect class="cls-30" x="155.97" y="42.64" width="0.62" height="4.84" transform="translate(-4.06 72.34) rotate(-25.74)"/><rect class="cls-42" x="146.69" y="56.88" width="3.12" height="3.35" transform="translate(16.48 148.25) rotate(-55.8)"/><rect class="cls-43" x="145.95" y="57.27" width="3.12" height="1.56" transform="translate(16.59 147.45) rotate(-55.81)"/><rect class="cls-44" x="143.15" y="54.96" width="5.69" height="4.12" rx="0.61" transform="translate(16.83 145.8) rotate(-55.84)"/><polygon class="cls-30" points="146.3 59.15 145.89 59.75 143.4 58.06 143.81 57.46 146.3 59.15"/><rect class="cls-30" x="145.16" y="56.2" width="0.61" height="3.01" transform="translate(16.12 145.8) rotate(-55.9)"/><polygon class="cls-30" points="147.38 57.56 147.16 57.88 144.67 56.19 144.89 55.87 147.38 57.56"/><rect class="cls-42" x="169.55" y="45.88" width="3.35" height="3.12" transform="translate(111.41 214.74) rotate(-85.81)"/><rect class="cls-43" x="170.51" y="44.99" width="1.56" height="3.12" transform="translate(112.37 213.98) rotate(-85.81)"/><rect class="cls-44" x="169.36" y="41.87" width="4.12" height="5.68" rx="0.61" transform="translate(114.38 212.44) rotate(-85.84)"/><rect class="cls-30" x="171.87" y="44.44" width="3.01" height="0.73" transform="translate(116.03 214.44) rotate(-85.81)"/><rect class="cls-30" x="170.78" y="44.42" width="3.01" height="0.61" transform="translate(115.01 213.25) rotate(-85.78)"/><polygon class="cls-30" points="170.99 46.13 171.37 46.16 171.59 43.16 171.21 43.13 170.99 46.13"/><path class="cls-44" d="M188.51,60.07a22.7,22.7,0,1,1-30.32-10.54A22.69,22.69,0,0,1,188.51,60.07Z"/><path class="cls-31" d="M178,90.4a22.7,22.7,0,0,1-19.78-40.87Z"/><path class="cls-45" d="M185.37,61.59a19.21,19.21,0,1,1-25.66-8.91A19.23,19.23,0,0,1,185.37,61.59Z"/><path class="cls-46" d="M152.63,78.44a19.21,19.21,0,0,1,17.44-27.58,19.21,19.21,0,1,0-2.13,38.31A19.22,19.22,0,0,1,152.63,78.44Z"/><path class="cls-47" d="M173.88,51.65a19.19,19.19,0,0,0-14.17,1L168.08,70Z"/><path class="cls-11" d="M160.13,53.54c.46-.27.94-.53,1.42-.76a19.12,19.12,0,0,1,8.5-1.92h0l-.35,0-.46,0-.37,0h-1.52l-.38,0-.54,0-.42,0-.59.08-.33,0-.56.09-.25,0c-.26.06-.52.11-.78.18l-.25.07-.61.17-.24.07-.79.26-.16.06-.67.27-.22.09-.8.36h0Z"/><g class="cls-48"><rect class="cls-20" x="161.06" y="54.62" width="0.41" height="2.33" transform="translate(-8.18 75.99) rotate(-25.88)"/><polygon class="cls-20" points="159.76 58.01 159.43 58.25 158.06 56.36 158.4 56.12 159.76 58.01"/><polygon class="cls-20" points="157.81 59.64 157.53 59.93 155.85 58.3 156.14 58.01 157.81 59.64"/><rect class="cls-20" x="154.89" y="59.92" width="0.41" height="2.34" transform="translate(17.33 154.94) rotate(-55.76)"/><polygon class="cls-20" points="154.9 63.77 154.73 64.15 152.6 63.19 152.77 62.81 154.9 63.77"/><rect class="cls-20" x="152.64" y="64.9" width="0.41" height="2.34" transform="translate(51.88 198.47) rotate(-76.05)"/><polygon class="cls-20" points="153.58 68.65 153.55 69.06 151.22 68.9 151.25 68.48 153.58 68.65"/><rect class="cls-20" x="151.26" y="71.31" width="2.33" height="0.41" transform="translate(-6.54 16.04) rotate(-5.9)"/><polygon class="cls-20" points="154.01 73.69 154.12 74.09 151.87 74.73 151.76 74.33 154.01 73.69"/><rect class="cls-20" x="152.74" y="76.57" width="2.33" height="0.41" transform="translate(-18.07 74.54) rotate(-25.77)"/><rect class="cls-20" x="154.14" y="78.93" width="2.33" height="0.41" transform="translate(-16.91 106.06) rotate(-35.89)"/><rect class="cls-20" x="155.92" y="81.01" width="2.34" height="0.41" transform="translate(-10.59 137.39) rotate(-45.86)"/><polygon class="cls-20" points="159.69 81.87 160.04 82.1 158.72 84.03 158.38 83.8 159.69 81.87"/><polygon class="cls-20" points="161.89 83.14 162.26 83.31 161.31 85.44 160.93 85.28 161.89 83.14"/><polygon class="cls-20" points="164.27 84.02 164.67 84.12 164.1 86.39 163.7 86.28 164.27 84.02"/><rect class="cls-20" x="165.72" y="85.44" width="2.34" height="0.41" transform="translate(69.05 245.69) rotate(-85.73)"/><rect class="cls-20" x="169.43" y="84.45" width="0.41" height="2.34" transform="translate(-7.8 17.63) rotate(-5.82)"/><rect class="cls-20" x="172.12" y="83.94" width="0.41" height="2.34" transform="translate(-16.7 50.32) rotate(-15.86)"/><rect class="cls-20" x="174.69" y="82.97" width="0.41" height="2.34" transform="translate(-19.19 84.73) rotate(-25.87)"/><rect class="cls-20" x="177.04" y="81.57" width="0.41" height="2.33" transform="translate(-14.94 119.18) rotate(-35.76)"/><polygon class="cls-20" points="178.35 80.29 178.64 79.99 180.31 81.62 180.03 81.92 178.35 80.29"/><rect class="cls-20" x="180.86" y="77.67" width="0.41" height="2.34" transform="translate(14.2 184.45) rotate(-55.86)"/><polygon class="cls-20" points="181.26 76.15 181.43 75.78 183.56 76.74 183.39 77.11 181.26 76.15"/><rect class="cls-20" x="183.11" y="72.69" width="0.41" height="2.33" transform="translate(66.93 233.59) rotate(-75.86)"/><polygon class="cls-20" points="182.59 71.27 182.61 70.86 184.94 71.03 184.91 71.44 182.59 71.27"/><rect class="cls-20" x="182.57" y="68.21" width="2.33" height="0.41" transform="translate(-5.93 18.76) rotate(-5.75)"/><polygon class="cls-20" points="182.16 66.23 182.05 65.84 184.29 65.2 184.4 65.6 182.16 66.23"/><rect class="cls-20" x="181.09" y="62.95" width="2.34" height="0.42" transform="translate(-9.3 85.77) rotate(-25.85)"/><polygon class="cls-20" points="180.03 61.65 179.79 61.31 181.69 59.94 181.93 60.28 180.03 61.65"/><polygon class="cls-20" points="178.41 59.7 178.11 59.41 179.74 57.73 180.04 58.02 178.41 59.7"/><polygon class="cls-20" points="176.47 58.06 176.13 57.83 177.44 55.9 177.78 56.13 176.47 58.06"/><rect class="cls-20" x="173.4" y="55.43" width="2.33" height="0.41" transform="translate(52.43 192.2) rotate(-65.87)"/><polygon class="cls-20" points="171.89 55.91 171.49 55.81 172.06 53.54 172.46 53.65 171.89 55.91"/><polygon class="cls-20" points="169.39 55.46 168.98 55.43 169.15 53.1 169.56 53.13 169.39 55.46"/><polygon class="cls-20" points="166.85 55.45 166.44 55.49 166.21 53.17 166.62 53.13 166.85 55.45"/><polygon class="cls-20" points="164.35 55.88 163.96 56 163.32 53.75 163.72 53.64 164.35 55.88"/></g><path class="cls-10" d="M170.05,69a2.18,2.18,0,1,0-1,2.91A2.19,2.19,0,0,0,170.05,69Zm-1.51,1.87a1,1,0,0,1-1.38-.47,1,1,0,0,1,.48-1.38,1,1,0,0,1,1.37.48A1,1,0,0,1,168.54,70.86Z"/><polygon class="cls-10" points="172.25 56.98 169.71 68.87 167.48 68.09 172.25 56.98"/><path class="cls-49" d="M168.54,70.86a1,1,0,0,1-1.38-.47,1,1,0,0,1,.48-1.38,1,1,0,0,1,1.37.48A1,1,0,0,1,168.54,70.86Z"/><path class="cls-19" d="M452.65,89.45a18.29,18.29,0,0,0,7.07-13.53c0-.34,0-.68,0-1h0a18,18,0,0,0-.84-5.88l-.06-.16a1,1,0,0,1,.05.16l-5.59,1.73a13,13,0,0,1,.59,4.06h0a13.1,13.1,0,0,1-5.57,10.55l3.38,4.78C452,89.92,452.35,89.68,452.65,89.45Z"/><path class="cls-10" d="M430.05,82.19a13.13,13.13,0,1,1,23.27-11.44L458.91,69a1,1,0,0,0-.05-.16c-.07-.23-.15-.46-.23-.69l-.08-.2a18.63,18.63,0,0,0-16.73-12.3l-.54,0H440l-.59,0-.41,0-.33,0-.68.09h0a19.39,19.39,0,0,0-4.63,1.31l-.54.24h0a19,19,0,0,0-10.85,15s0,.08,0,.12l-.06.67c0,.12,0,.23,0,.35s0,.3,0,.45,0,.27,0,.4a18.88,18.88,0,0,0,3.47,11.21Z"/><path class="cls-50" d="M451.72,90.14l-3.38-4.78a13.08,13.08,0,0,1-7.75,2.4h0a13.11,13.11,0,0,1-10.54-5.57l-4.78,3.38h0c.21.3.43.6.66.88a18.23,18.23,0,0,0,12.63,7h.1c.26,0,.52.06.79.07h.27l.79,0a18.9,18.9,0,0,0,11-3.33C451.91,90,452,89.92,451.72,90.14Z"/><path class="cls-31" d="M441.16,74.38l20.64,6.7a21.69,21.69,0,0,0-13.93-27.34,20.66,20.66,0,0,0-6.71-1.06Z"/><rect class="cls-5" x="366.65" y="39.58" width="30.47" height="25.62"/><rect class="cls-10" x="366.65" y="39.58" width="30.47" height="6.66"/><rect class="cls-6" x="370.75" y="49.61" width="2.23" height="2.23"/><rect class="cls-6" x="374.09" y="49.61" width="2.23" height="2.23"/><rect class="cls-11" x="377.43" y="49.61" width="2.23" height="2.23"/><rect class="cls-11" x="380.77" y="49.61" width="2.23" height="2.23"/><rect class="cls-11" x="384.11" y="49.61" width="2.23" height="2.23"/><rect class="cls-11" x="387.45" y="49.61" width="2.23" height="2.23"/><rect class="cls-11" x="390.8" y="49.61" width="2.23" height="2.23"/><rect class="cls-11" x="370.75" y="52.95" width="2.23" height="2.23"/><rect class="cls-11" x="374.09" y="52.95" width="2.23" height="2.23"/><rect class="cls-11" x="377.43" y="52.95" width="2.23" height="2.23"/><rect class="cls-11" x="380.77" y="52.95" width="2.23" height="2.23"/><rect class="cls-20" x="384.11" y="52.95" width="2.23" height="2.23"/><rect class="cls-11" x="387.45" y="52.95" width="2.23" height="2.23"/><rect class="cls-11" x="390.8" y="52.95" width="2.23" height="2.23"/><rect class="cls-11" x="370.75" y="56.29" width="2.23" height="2.23"/><rect class="cls-20" x="374.09" y="56.29" width="2.23" height="2.23"/><rect class="cls-20" x="377.43" y="56.29" width="2.23" height="2.23"/><rect class="cls-11" x="380.77" y="56.29" width="2.23" height="2.23"/><rect class="cls-11" x="384.11" y="56.29" width="2.23" height="2.23"/><rect class="cls-11" x="387.45" y="56.29" width="2.23" height="2.23"/><rect class="cls-11" x="390.8" y="56.29" width="2.23" height="2.23"/><rect class="cls-11" x="370.75" y="59.63" width="2.23" height="2.23"/><rect class="cls-11" x="374.09" y="59.63" width="2.23" height="2.23"/><rect class="cls-11" x="377.43" y="59.63" width="2.23" height="2.23"/><rect class="cls-11" x="380.77" y="59.63" width="2.23" height="2.23"/><rect class="cls-6" x="384.11" y="59.63" width="2.23" height="2.23"/><rect class="cls-6" x="387.45" y="59.63" width="2.23" height="2.23"/><rect class="cls-6" x="390.8" y="59.63" width="2.23" height="2.23"/><rect class="cls-11" x="370.71" y="36.24" width="2.3" height="6.68"/><rect class="cls-11" x="390.76" y="36.24" width="2.3" height="6.68"/><path class="cls-51" d="M49.13,91.63a11.43,11.43,0,0,1-7.58-2.85l8-8H60.58a11.47,11.47,0,0,1-11.45,10.8Z"/><path class="cls-51" d="M49.87,79.08V68.69A11.4,11.4,0,0,1,60.55,79.08Z"/><path class="cls-50" d="M49.13,91.63a11.43,11.43,0,0,1-7.58-2.85l8-8H60.58a11.47,11.47,0,0,1-11.45,10.8Z"/><path class="cls-19" d="M47.44,65a14.58,14.58,0,0,0-9.89,24.21l9.89-10.1V65Z"/><path class="cls-50" d="M16.93,78.39V68A11.4,11.4,0,0,1,27.61,78.39Z"/><path class="cls-10" d="M14.31,79.9V65.71a13.87,13.87,0,1,0,8.86,25.76Z"/><path class="cls-51" d="M18.1,80.14c1.38,1.77,3.72,4.78,5.95,7.67l.25-.23a11.38,11.38,0,0,0,3.34-7.44Z"/><g class="cls-12"><path class="cls-13" d="M440.47,125.53c4.36,5.38,11.54,4.87,19.21,3.37,0,.07,5.31,4.13,7.31,5.47a23.17,23.17,0,0,1,8.23,8.8,31.08,31.08,0,0,1,2.86,8.4c-4.56-4.26-11.67-3.2-19.33-1,.06-.13-11.94-9.13-13.36-13.1A40.43,40.43,0,0,1,440.47,125.53Z"/></g><path class="cls-5" d="M441.5,124.72c4.75,6.32,13.35,4.65,22.23,2.39,0,0,4,5.06,5.5,6.89,2.22,2.41,5.43,5.21,7.42,8.79a29.26,29.26,0,0,1,3,7.45c-5.07-5.42-13.86-3.09-23-.09.09-.18-2.94-1.59-5.84-4s-5.76-5.71-6.23-7.77A67.92,67.92,0,0,1,441.5,124.72Z"/></g></g></svg>