<?xml version="1.0" encoding="utf-8"?>
<!-- Generator: Adobe Illustrator 24.1.0, SVG Export Plug-In . SVG Version: 6.00 Build 0)  -->
<svg version="1.1" id="Layer_1" xmlns="http://www.w3.org/2000/svg" xmlns:xlink="http://www.w3.org/1999/xlink" x="0px" y="0px"
	 viewBox="0 0 142 36" style="enable-background:new 0 0 142 36;" xml:space="preserve">
<path d="M66.6,30V2.3c0-0.2,0.1-0.4,0.3-0.4c0,0,0,0,0.1,0h2.6c0.3,0,0.5,0.2,0.6,0.4l5.2,17.5h0.2l5-17.5c0.1-0.3,0.3-0.4,0.6-0.4
	h2.6c0.2,0,0.4,0.1,0.4,0.3c0,0,0,0.1,0,0.1V30c0,0.2-0.1,0.4-0.3,0.4c0,0-0.1,0-0.1,0h-2.2c-0.2,0-0.4-0.1-0.4-0.3c0,0,0-0.1,0-0.1
	V10.2h-0.2L76.6,25c0,0.2-0.3,0.4-0.5,0.4h-1.4c-0.2,0-0.5-0.2-0.5-0.4l-4.3-14.8h-0.2V30c0,0.2-0.1,0.4-0.3,0.4c0,0-0.1,0-0.1,0H67
	C66.8,30.5,66.6,30.3,66.6,30z"/>
<path d="M95.3,30.7h-1c-1.2,0.1-2.4-0.3-3.3-1.1c-0.8-1.1-1.1-2.4-1-3.7V13.1c0-0.2-0.1-0.2-0.2-0.2h-1.3c-0.2,0-0.4-0.1-0.4-0.3
	c0,0,0-0.1,0-0.1v-1.7c0-0.2,0.1-0.4,0.3-0.4c0,0,0.1,0,0.1,0h1.2c0.2,0,0.2-0.1,0.2-0.2V4.4C89.8,4.2,90,4,90.2,4c0,0,0,0,0,0h2.4
	c0.2,0,0.4,0.1,0.4,0.3c0,0,0,0.1,0,0.1v5.7c0,0.2,0.1,0.2,0.2,0.2h2c0.2,0,0.4,0.1,0.4,0.3c0,0,0,0.1,0,0.1v1.7
	c0,0.2-0.1,0.4-0.3,0.4c0,0-0.1,0-0.1,0h-2c-0.2,0-0.2,0.1-0.2,0.2v12.7c0,1.2,0.6,1.8,1.7,1.8h0.6c0.2,0,0.4,0.1,0.4,0.3
	c0,0,0,0.1,0,0.1v2.2C95.7,30.5,95.5,30.7,95.3,30.7C95.3,30.7,95.3,30.7,95.3,30.7z"/>
<path d="M104.6,30.9c-2.5,0.2-4.7-1.4-5.4-3.8c-0.4-2.2-0.6-4.5-0.5-6.7c-0.1-2.2,0.1-4.5,0.5-6.7c0.8-2.5,2.7-3.7,5.5-3.7
	c2.5-0.2,4.7,1.4,5.4,3.7c0.4,2.4,0.6,4.8,0.5,7.3c0,0.2-0.1,0.4-0.3,0.4c0,0-0.1,0-0.1,0h-7.9c-0.1,0-0.2,0.1-0.2,0.2
	c0,0,0,0,0,0.1c-0.1,1.5,0,3,0.3,4.5c0.3,1.1,1.3,1.8,2.4,1.7c1.3,0,2.5-0.9,2.7-2.3c0-0.2,0.2-0.4,0.5-0.4c0,0,0,0,0,0l2.2,0.5
	c0.2,0,0.3,0.2,0.3,0.5c-0.2,1.3-0.9,2.6-1.9,3.4C107.4,30.5,106,30.9,104.6,30.9z M107.1,18.7c0.2,0,0.2-0.1,0.2-0.2
	c0.1-1.3,0-2.6-0.3-3.8c-0.5-1.3-1.9-2-3.2-1.5c-0.7,0.3-1.3,0.8-1.5,1.5c-0.3,1.3-0.4,2.6-0.3,3.8c0,0.2,0.1,0.2,0.2,0.2
	L107.1,18.7z"/>
<path d="M120.1,30.9c-2.8,0-4.6-1.2-5.4-3.7c-0.4-2.2-0.6-4.5-0.5-6.7c-0.1-2.2,0-4.5,0.5-6.7c0.7-2.4,2.9-3.9,5.4-3.7
	c1.4-0.1,2.8,0.4,3.9,1.4c1,1,1.7,2.3,1.7,3.8c0,0.2-0.1,0.4-0.3,0.5l-2.3,0.4c-0.3,0.1-0.4,0-0.5-0.4c-0.3-1.8-1.1-2.7-2.6-2.7
	c-1.1-0.1-2.1,0.6-2.4,1.6c-0.3,1.9-0.3,3.8-0.2,5.8c-0.1,1.9,0,3.9,0.2,5.8c0.3,1,1.3,1.7,2.4,1.6c1.4,0,2.3-0.9,2.6-2.7
	c0-0.3,0.2-0.4,0.5-0.4l2.3,0.4c0.2,0,0.3,0.2,0.3,0.5c-0.1,1.4-0.7,2.7-1.7,3.7C122.9,30.5,121.5,30.9,120.1,30.9z"/>
<path d="M140.7,30.5h-2.4c-0.2,0-0.4-0.1-0.4-0.3c0,0,0-0.1,0-0.1V16.6c0-2.4-0.9-3.7-2.6-3.7s-2.7,1.2-2.7,3.7V30
	c0,0.2-0.1,0.4-0.3,0.4c0,0-0.1,0-0.1,0h-2.4c-0.2,0-0.4-0.1-0.4-0.3c0,0,0-0.1,0-0.1V2.3c0-0.2,0.1-0.4,0.3-0.4c0,0,0.1,0,0.1,0
	h2.4c0.2,0,0.4,0.1,0.4,0.3c0,0,0,0.1,0,0.1v10.1l0,0c0.6-1.5,2.2-2.5,3.8-2.4c3.1,0,4.7,2.1,4.7,6.2V30
	C141.1,30.3,141,30.5,140.7,30.5z"/>
<path d="M0.7,18.8c-0.9,0.7-1,2-0.3,2.8c0.7,0.9,2,1,2.8,0.3c0.9-0.7,1-2,0.3-2.8c0,0,0,0,0,0C2.8,18.2,1.6,18,0.7,18.8
	C0.7,18.8,0.7,18.8,0.7,18.8z"/>
<path d="M9.4,17.8c-1.4,1.4-1.3,3.7,0.1,5.1c1.4,1.4,3.7,1.3,5.1-0.1s1.3-3.7-0.1-5.1c0,0,0,0,0,0C13.1,16.3,10.8,16.4,9.4,17.8
	C9.4,17.8,9.4,17.8,9.4,17.8z"/>
<path d="M57.9,20.3c0-5.9-4.7-10.6-10.6-10.6c-4.2,0-7.3,2.7-9.5,5.9c-1.2,1.9-3.4,2.9-5.6,2.7c-2.8-0.6-4.1-3.7-7.7-3.5
	c-3.1,0-5.6,2.5-5.6,5.6s2.5,5.6,5.6,5.6c3.5,0.1,4.8-3,7.7-3.5c2.2-0.3,4.4,0.8,5.6,2.6c2.2,3.2,5.3,5.9,9.5,5.9
	C53.2,30.9,57.9,26.2,57.9,20.3C57.9,20.3,57.9,20.3,57.9,20.3z"/>
</svg>
