<svg id="Layer_1" data-name="Layer 1" xmlns="http://www.w3.org/2000/svg" xmlns:xlink="http://www.w3.org/1999/xlink" viewBox="0 0 482 278"><defs><style>.cls-1,.cls-2,.cls-27{fill:none;}.cls-2{stroke:#00aeef;}.cls-2,.cls-26,.cls-27{stroke-miterlimit:10;}.cls-3{fill:#a73b4f;}.cls-4{fill:#e05a44;}.cls-5{fill:#de4e69;}.cls-6{fill:#eaf4fe;}.cls-7{fill:#0450cf;}.cls-8{fill:#fdc2cc;}.cls-9{fill:#003e99;}.cls-10{fill:#9ac7f7;}.cls-11{fill:#ff876c;}.cls-12{fill:#7ec896;}.cls-13{fill:#c5e1f9;}.cls-14{fill:#fec12f;}.cls-15{fill:#7eb3ff;}.cls-16{fill:#fff;}.cls-17{fill:#fbd9d9;}.cls-18{fill:#db786e;}.cls-19{fill:#f7f8fc;}.cls-20{fill:#f7b68b;}.cls-21{fill:#e6e6e6;}.cls-22{fill:#ec9568;}.cls-23{fill:#212957;}.cls-24{fill:#281616;}.cls-25,.cls-26{fill:#6d1b2b;}.cls-26{stroke:#6d1b2b;}.cls-26,.cls-27{stroke-width:2.23px;}.cls-27{stroke:#281616;}.cls-28{fill:#d5daef;}.cls-29{isolation:isolate;}.cls-30{fill:#97c1e4;}.cls-31{fill:#a6d0f3;}.cls-32{fill:#bce2ff;}.cls-33{clip-path:url(#clip-path);}.cls-34{fill:#9ac3e6;}.cls-35{fill:#9fc8eb;}.cls-36{fill:#a4cdf0;}.cls-37{fill:#a8d2f5;}.cls-38{fill:#aed7fa;}.cls-39{fill:#b2dcff;}.cls-40{fill:#b4dbff;}.cls-41{fill:#b5deff;}.cls-42{fill:#b9e0ff;}.cls-43{fill:#c1e6ff;}.cls-44{fill:#c4e9ff;}.cls-45{fill:#9cc3e8;}.cls-46{clip-path:url(#clip-path-2);}.cls-47{clip-path:url(#clip-path-3);}.cls-48{fill:#c1e8ff;}.cls-49{fill:#acd5f8;}.cls-50{clip-path:url(#clip-path-4);}.cls-51{clip-path:url(#clip-path-5);}.cls-52{fill:#bfe5ff;}.cls-53{fill:#b0d8fd;}.cls-54{fill:#c2e9ff;}.cls-55{fill:#a0c8ec;}.cls-56{fill:#eaffff;}.cls-57{fill:url(#linear-gradient);}.cls-58{fill:url(#linear-gradient-2);}.cls-59{fill:url(#linear-gradient-3);}.cls-60{fill:url(#linear-gradient-4);}.cls-61{fill:#e57187;}.cls-62{fill:#f2b8c3;}.cls-63{fill:url(#linear-gradient-5);}.cls-64{fill:url(#linear-gradient-6);}.cls-65{fill:#f78065;}</style><clipPath id="clip-path"><path class="cls-1" d="M457.94,73.32l-7.38,6.74c2-1.84.36-7.18-4.05-12.53a30,30,0,0,0-7.68-6.76c-2.52-1.48-4.8-2.06-6.24-1.4a2.57,2.57,0,0,0-.61.4L439.36,53a2.1,2.1,0,0,1,.6-.4c1.45-.66,3.73-.08,6.25,1.39a30.31,30.31,0,0,1,7.67,6.76C458.3,66.14,460,71.47,457.94,73.32Z"/></clipPath><clipPath id="clip-path-2"><path class="cls-1" d="M423.76,44.16l-7.38,6.75a8.16,8.16,0,0,1,1.54-5.3l7.38-6.74A8.05,8.05,0,0,0,423.76,44.16Z"/></clipPath><clipPath id="clip-path-3"><path class="cls-1" d="M466.35,89.71,459,96.46a20,20,0,0,1-7.28-1.82l7.38-6.74A19.87,19.87,0,0,0,466.35,89.71Z"/></clipPath><clipPath id="clip-path-4"><path class="cls-1" d="M431.15,62.83l-7.37,6.74a56.42,56.42,0,0,1-5.11-9.31L426,53.51A57.65,57.65,0,0,0,431.15,62.83Z"/></clipPath><clipPath id="clip-path-5"><path class="cls-1" d="M448.8,81.7l-7.38,6.74a75.76,75.76,0,0,1-8.76-7.87L440,73.82A76.81,76.81,0,0,0,448.8,81.7Z"/></clipPath><linearGradient id="linear-gradient" x1="12404.14" y1="-2449.14" x2="12423.08" y2="-2451.28" gradientTransform="matrix(0.98, 0.22, -0.22, 0.98, -12559.21, -179.84)" gradientUnits="userSpaceOnUse"><stop offset="0" stop-color="#ec9568"/><stop offset="1" stop-color="#f7b68b"/></linearGradient><linearGradient id="linear-gradient-2" x1="12279.34" y1="-933.5" x2="12298.02" y2="-935.61" gradientTransform="translate(-11743.15 -3292.99) rotate(20.52)" xlink:href="#linear-gradient"/><linearGradient id="linear-gradient-3" x1="11082.09" y1="-2343.88" x2="11100.66" y2="-2345.98" gradientTransform="matrix(0.59, 0.81, -0.81, 0.59, -8305.44, -7451.79)" xlink:href="#linear-gradient"/><linearGradient id="linear-gradient-4" x1="10585.35" y1="-3273.14" x2="10603.92" y2="-3275.24" gradientTransform="translate(-7360.16 -8039.48) rotate(64.98)" xlink:href="#linear-gradient"/><linearGradient id="linear-gradient-5" x1="11608.29" y1="194.69" x2="11647.86" y2="194.69" gradientTransform="translate(-11595.8)" xlink:href="#linear-gradient"/><linearGradient id="linear-gradient-6" x1="-7818.61" y1="1838.41" x2="-7798.66" y2="1961.84" gradientTransform="matrix(-0.92, 0.4, 0.4, 0.92, -7819.52, 1648.68)" gradientUnits="userSpaceOnUse"><stop offset="0" stop-color="#f7b68b"/><stop offset="1" stop-color="#ec9568"/></linearGradient></defs><rect class="cls-2" x="-622.96" y="-410.69" width="1803.7" height="1648.07"/><path class="cls-3" d="M67.26,126.43c30-10.78,73-14.46,116.89-47.33C266.32,17.6,384.21-6.56,446.23,67.57s35,145.87-88.94,168.54c-91,16.65-130-11.05-181.07,6.81C81.17,276.17,11,254.25,2,207.87S27.3,140.76,67.26,126.43Z"/><path class="cls-4" d="M249,37.17a17,17,0,1,1-3.43-23.82A17,17,0,0,1,249,37.17Z"/><rect class="cls-5" x="151.82" y="70.72" width="245.71" height="138.36"/><rect class="cls-6" x="151.92" y="70.69" width="245.71" height="3.58"/><rect class="cls-7" x="156.27" y="72.34" width="5.91" height="0.34"/><rect class="cls-7" x="163.86" y="72.34" width="5.92" height="0.34"/><rect class="cls-7" x="171.46" y="72.34" width="5.91" height="0.34"/><rect class="cls-7" x="179.05" y="72.34" width="5.91" height="0.34"/><rect class="cls-7" x="186.64" y="72.34" width="5.91" height="0.34"/><rect class="cls-7" x="194.24" y="72.34" width="5.92" height="0.34"/><rect class="cls-7" x="201.84" y="72.34" width="5.91" height="0.34"/><rect class="cls-7" x="209.43" y="72.34" width="5.91" height="0.34"/><rect class="cls-7" x="153.64" y="71.91" width="1.11" height="1.21"/><rect class="cls-8" x="151.92" y="73.88" width="245.71" height="4.28"/><rect class="cls-9" x="151.92" y="77.86" width="245.71" height="0.29"/><rect class="cls-10" x="381.14" y="74.82" width="15.59" height="2.7"/><rect class="cls-9" x="378.52" y="75.89" width="0.61" height="0.55"/><rect class="cls-10" x="369.04" y="75.89" width="8.21" height="0.56"/><rect class="cls-9" x="157.38" y="75.46" width="1.11" height="1.21"/><rect class="cls-10" x="153.64" y="75.46" width="1.11" height="1.21"/><rect class="cls-9" x="159.82" y="75.46" width="1.11" height="1.21"/><rect class="cls-10" x="183.18" y="81.03" width="51.36" height="1.54"/><rect class="cls-11" x="187.42" y="87.08" width="8.5" height="1.54"/><rect class="cls-11" x="187.42" y="93.13" width="8.5" height="1.54"/><rect class="cls-11" x="187.42" y="99.18" width="8.5" height="1.54"/><rect class="cls-12" x="212.52" y="87.08" width="26.07" height="1.54"/><rect class="cls-12" x="212.52" y="93.13" width="26.07" height="1.54"/><rect class="cls-12" x="212.52" y="99.18" width="26.07" height="1.54"/><rect class="cls-13" x="199.59" y="87.08" width="5.99" height="1.54"/><rect class="cls-13" x="199.59" y="93.13" width="5.99" height="1.54"/><rect class="cls-13" x="199.59" y="99.18" width="5.99" height="1.54"/><rect class="cls-14" x="208.16" y="87.08" width="1.59" height="1.54"/><rect class="cls-14" x="208.16" y="93.13" width="1.59" height="1.54"/><rect class="cls-14" x="208.16" y="99.18" width="1.59" height="1.54"/><rect class="cls-14" x="183.37" y="87.08" width="1.59" height="1.54"/><rect class="cls-14" x="183.37" y="93.13" width="1.59" height="1.54"/><rect class="cls-14" x="183.37" y="99.18" width="1.59" height="1.54"/><rect class="cls-11" x="187.42" y="111.28" width="13.13" height="1.54"/><rect class="cls-12" x="218.7" y="111.28" width="19.89" height="1.54"/><rect class="cls-13" x="204.22" y="111.28" width="7.53" height="1.54"/><rect class="cls-14" x="214.33" y="111.28" width="1.59" height="1.54"/><rect class="cls-10" x="239.36" y="123.38" width="61.6" height="1.54"/><rect class="cls-13" x="204.99" y="123.38" width="29.54" height="1.54"/><rect class="cls-12" x="261.76" y="111.28" width="19.89" height="1.54"/><rect class="cls-13" x="244.19" y="111.28" width="10.62" height="1.54"/><rect class="cls-14" x="257.39" y="111.28" width="1.59" height="1.54"/><rect class="cls-14" x="283.65" y="111.28" width="1.59" height="1.54"/><rect class="cls-14" x="183.37" y="111.28" width="1.59" height="1.54"/><rect class="cls-11" x="187.42" y="135.48" width="13.13" height="1.54"/><rect class="cls-13" x="183.37" y="135.48" width="1.59" height="1.54"/><rect class="cls-13" x="203.06" y="135.48" width="1.59" height="1.54"/><rect class="cls-11" x="177.38" y="159.69" width="13.13" height="1.54"/><rect class="cls-13" x="173.33" y="159.69" width="1.59" height="1.54"/><rect class="cls-13" x="193.02" y="159.69" width="1.59" height="1.54"/><rect class="cls-14" x="194.37" y="129.43" width="1.59" height="1.54"/><rect class="cls-11" x="194.37" y="117.33" width="7.72" height="1.54"/><rect class="cls-14" x="204.99" y="117.33" width="30.11" height="1.54"/><rect class="cls-12" x="256.93" y="87.08" width="26.07" height="1.54"/><rect class="cls-12" x="256.93" y="93.13" width="26.07" height="1.54"/><rect class="cls-12" x="256.93" y="99.18" width="26.07" height="1.54"/><rect class="cls-12" x="284.35" y="87.08" width="45.57" height="1.54"/><rect class="cls-12" x="284.35" y="93.13" width="62.37" height="1.54"/><rect class="cls-12" x="284.35" y="99.18" width="73.57" height="1.54"/><rect class="cls-13" x="244" y="87.08" width="5.99" height="1.54"/><rect class="cls-13" x="244" y="93.13" width="5.99" height="1.54"/><rect class="cls-13" x="244" y="99.18" width="5.99" height="1.54"/><rect class="cls-14" x="252.57" y="87.08" width="1.59" height="1.54"/><rect class="cls-14" x="252.57" y="93.13" width="1.59" height="1.54"/><rect class="cls-14" x="252.57" y="99.18" width="1.59" height="1.54"/><rect class="cls-14" x="335.91" y="87.08" width="1.59" height="1.54"/><rect class="cls-14" x="351.23" y="93.13" width="1.59" height="1.54"/><rect class="cls-14" x="361.66" y="99.18" width="1.59" height="1.54"/><rect class="cls-15" x="183.18" y="105.23" width="51.36" height="1.54"/><rect class="cls-11" x="177" y="172.55" width="8.5" height="1.54"/><rect class="cls-11" x="196.88" y="184.65" width="8.5" height="1.54"/><rect class="cls-12" x="221.99" y="184.65" width="56.38" height="1.54"/><rect class="cls-13" x="183.75" y="178.6" width="82.64" height="1.54"/><rect class="cls-13" x="209.05" y="184.65" width="5.99" height="1.54"/><rect class="cls-14" x="217.62" y="184.65" width="1.59" height="1.54"/><rect class="cls-14" x="172.94" y="172.55" width="1.59" height="1.54"/><rect class="cls-14" x="187.42" y="172.55" width="1.59" height="1.54"/><rect class="cls-11" x="208.28" y="190.7" width="3.86" height="1.54"/><rect class="cls-14" x="204.22" y="190.7" width="1.59" height="1.54"/><rect class="cls-14" x="214.07" y="190.7" width="1.59" height="1.54"/><rect class="cls-11" x="219.09" y="202.81" width="3.86" height="1.54"/><rect class="cls-14" x="215.03" y="202.81" width="1.59" height="1.54"/><rect class="cls-14" x="224.88" y="202.81" width="1.59" height="1.54"/><rect class="cls-14" x="192.83" y="184.65" width="1.59" height="1.54"/><rect class="cls-13" x="215.23" y="196.75" width="127.82" height="1.54"/><rect class="cls-14" x="280.3" y="184.65" width="1.59" height="1.54"/><rect class="cls-15" x="183.18" y="141.53" width="70.67" height="1.54"/><rect class="cls-15" x="183.18" y="147.58" width="104.65" height="1.54"/><rect class="cls-15" x="183.18" y="153.63" width="35.53" height="1.54"/><rect class="cls-14" x="154.98" y="81.03" width="3.86" height="1.54"/><rect class="cls-14" x="154.98" y="87.08" width="3.86" height="1.54"/><rect class="cls-14" x="154.98" y="93.13" width="3.86" height="1.54"/><rect class="cls-14" x="154.98" y="99.18" width="3.86" height="1.54"/><rect class="cls-14" x="154.98" y="105.23" width="3.86" height="1.54"/><rect class="cls-14" x="154.98" y="111.28" width="3.86" height="1.54"/><rect class="cls-14" x="154.98" y="117.33" width="3.86" height="1.54"/><rect class="cls-14" x="154.98" y="123.38" width="3.86" height="1.54"/><rect class="cls-14" x="154.98" y="129.43" width="3.86" height="1.54"/><rect class="cls-14" x="154.98" y="135.48" width="3.86" height="1.54"/><rect class="cls-14" x="154.98" y="141.53" width="3.86" height="1.54"/><rect class="cls-14" x="154.98" y="147.58" width="3.86" height="1.54"/><rect class="cls-14" x="154.98" y="153.63" width="3.86" height="1.54"/><rect class="cls-14" x="154.98" y="159.69" width="3.86" height="1.54"/><rect class="cls-14" x="154.98" y="165.74" width="3.86" height="1.54"/><rect class="cls-14" x="154.98" y="171.79" width="3.86" height="1.54"/><rect class="cls-14" x="154.98" y="177.84" width="3.86" height="1.54"/><path class="cls-16" d="M194.69,217.43a17,17,0,1,1-3.43-23.82A17,17,0,0,1,194.69,217.43Z"/><path class="cls-4" d="M279.8,261.36a21.74,21.74,0,1,1-4.38-30.44A21.73,21.73,0,0,1,279.8,261.36Z"/><path class="cls-3" d="M262.08,47.88V46.43l6.63-3.61v1.55l-5.17,2.73,5.17,2.68v1.69Z"/><path class="cls-3" d="M272.46,52.88H270.9l3.73-13.08h1.5Z"/><path class="cls-3" d="M278.32,51.47V49.93l5.16-2.72-5.16-2.71V42.84L285,46.41v1.45Z"/><path class="cls-17" d="M325.7,216V60.38a31.73,31.73,0,0,1,1.65-56.79V30.64l13.33,7.7L354,30.64v-27a31.73,31.73,0,0,1,1.65,56.79V216A31.73,31.73,0,0,1,354,272.74V245.69L340.68,238l-13.33,7.69v27.06A31.73,31.73,0,0,1,325.7,216Z"/><path class="cls-18" d="M416,210.8c-.23,6.16-4.89,21.2-7.72,29.82H364.32L356.46,219s-16.62-25.88,12-43.06c4.11-2.46,25.48-.65,25.48-.65s15.82,1.06,36.81,32.54C431.41,208.82,416.29,201.92,416,210.8Z"/><path class="cls-19" d="M404,204.3c-.27.75.11,1.41.83,1.41h34.85a2.14,2.14,0,0,0,1.79-1.41l8.86-25.09c.26-.75-.12-1.28-.84-1.28H414.65a2,2,0,0,0-1.8,1.28Z"/><path class="cls-20" d="M389.66,160.83c-.32,1.65-3.17,6.62,9.21,18.08,8.87,8.22-19.4,9.21-29.26-3.29,0,0,15.12-2,10.19-29.58C376.1,125.32,389.66,160.83,389.66,160.83Z"/><path class="cls-20" d="M396.13,188.77l5.92,2.41s2.28,1.06,1.75,1.37-5.26-1-5.26-1a21.81,21.81,0,0,0-3.29,1.86c-2,1.32-5.48,1.1-5.48,1.1s-12,23.45-22.79,27.39-12.27,2.19-13.8-.65-4.38-15.56,6.57-18.85,27.61-9.2,27.61-9.2l5.26-5.54,3.73-.16s1.53,1.09,2.41,1.75"/><path class="cls-21" d="M404.8,204.1a.92.92,0,0,0,.83,1.36h34.85a2.13,2.13,0,0,0,1.79-1.36l8.85-24.24a.83.83,0,0,0-.83-1.23H415.44a2,2,0,0,0-1.79,1.23Z"/><rect class="cls-21" x="392.16" y="205.46" width="49.13" height="3.78" rx="1.31"/><path class="cls-22" d="M412.35,209.24h25s5.26,1.77.33,8-10,4.5-12.82,3.35-12.17-9.75-12.17-9.75l-3.94.47L403.8,209a3,3,0,0,1,2.63,0,4.21,4.21,0,0,0,2.3.48l1.48-.82-1-1.15-.49-1.15,2.3,1.36Z"/><path class="cls-22" d="M380.38,161.75A47.65,47.65,0,0,0,379.8,146c-3.7-20.72,9.86,14.79,9.86,14.79-.28,1.41-2.41,5.27,4.79,13.56C388.61,173.13,383.57,168.42,380.38,161.75Z"/><path class="cls-20" d="M392.62,137.17s3.29,20.38,2,25-5.24,5.67-9.87-.66c-8.87-12.16-8.54-21.69-5.91-23.34S388.68,130.26,392.62,137.17Z"/><path class="cls-23" d="M387,140.12c3.2.52,8.22,2.3,11.51-5.91s-3.94-9.86-7.56-5.59-3.29,6.24-1,4.27-1.31-7.89-4.6-3.94-4.6,9.86-3,9.53-3.61-6.9-5.59-3.94-3.28,7.23-1,8.54,4.93-3.28,2.63-1.64-3,10.52,0,11.83,3-1,.33-3.61,1-8.06,2.3-2.8c.11.45,1,3.45,1,3.45l2,1.65s0-5.92-1.32-8.06C379.8,139.09,379.89,139,387,140.12Z"/><path class="cls-20" d="M410.49,209.56s17.78,1.71,22.25,2.16c3,.3,5.69,1.55,6.45,3.11a12.26,12.26,0,0,1-1.53,2.42c-4.93,6.25-10,4.5-12.82,3.35s-12.17-9.75-12.17-9.75l-3.94.47C408.54,211,410.16,209.62,410.49,209.56Z"/><path class="cls-22" d="M353.58,221.91c1.16.81,1.54,1.44,3.43,1.19,2.9-.38,12-5.56,16.25-8.82,6.81-5.16,16.12-19.76,16.48-19.75-.64,1.25-12.32,23.5-22.76,27.33C357.17,225.47,355,224.31,353.58,221.91Z"/><path class="cls-19" d="M426.19,193.15a3.39,3.39,0,1,0,3.39-3.39A3.39,3.39,0,0,0,426.19,193.15Z"/><path class="cls-24" d="M433.26,261a7.3,7.3,0,0,0,3,0c2.1-.3,7.78-1.5,12.86-2.1s5.08.3,5.08,2.1-1.49,7.77-7.17,8.67-15.25,0-15.25,0-4.78-.3-4.78-1.5S428.18,259.22,433.26,261Z"/><path class="cls-24" d="M391.71,237.4s38-14.35,50.52-14.35,17.64,4.78,12,12.85-41.85,34.68-41.85,34.68H389.91S375.56,253.54,391.71,237.4Z"/><path class="cls-25" d="M364.5,260.42S359.42,247,363,237.7s10.77-16.15,18.84-12.56,52.92,33.19,52.92,33.19l-4.49,9.86s-34.67-6.27-40.06-11.66c-.3-.3,0,11.66-8.07,13.46C376.6,271.22,369.28,268.79,364.5,260.42Z"/><path class="cls-24" d="M390.81,267.59s7.77-.89,9.27-1.49c1.78-.71,5.08-5.08,11.36-4.78s12,.59,9.87,4.78-5.39,6.58-14.06,7.47-16.74,1.2-18.23.3S385.43,267,390.81,267.59Z"/><line class="cls-26" x1="432.97" y1="229.62" x2="417.12" y2="246.07"/><line class="cls-27" x1="378.55" y1="250.25" x2="392.6" y2="258.33"/><path class="cls-28" d="M455,152.94a17,17,0,1,1-3.42-23.82A17,17,0,0,1,455,152.94Z"/><g class="cls-29"><polygon class="cls-30" points="469.87 60.81 462.49 67.56 458.76 70.27 466.14 63.52 469.87 60.81"/><polygon class="cls-31" points="438.23 38.45 430.85 45.2 429.56 38.25 436.93 31.51 438.23 38.45"/><polygon class="cls-32" points="481.5 86.31 474.12 93.06 466.16 88.94 473.54 82.19 481.5 86.31"/><g class="cls-29"><g class="cls-33"><g class="cls-29"><path class="cls-34" d="M457.94,73.32l-7.38,6.74a3.49,3.49,0,0,0,.79-3.18l7.38-6.74a3.57,3.57,0,0,1-.79,3.18"/><path class="cls-35" d="M458.73,70.14l-7.38,6.74a8.24,8.24,0,0,0-.28-1.36l7.38-6.75a9.53,9.53,0,0,1,.28,1.37"/><path class="cls-36" d="M458.45,68.77l-7.38,6.75c-.11-.39-.25-.8-.41-1.23L458,67.55a11.82,11.82,0,0,1,.42,1.22"/><path class="cls-37" d="M458,67.55l-7.37,6.74c-.15-.38-.32-.77-.51-1.18l7.37-6.75c.19.41.37.8.51,1.19"/><path class="cls-38" d="M457.52,66.36l-7.37,6.75c-.19-.39-.39-.79-.62-1.2l7.37-6.75c.23.41.44.81.62,1.2"/><path class="cls-39" d="M456.9,65.16l-7.37,6.75c-.23-.42-.48-.84-.75-1.27l7.37-6.74c.27.42.52.85.75,1.26"/><path class="cls-40" d="M456.15,63.9l-7.37,6.74q-.45-.7-1-1.41l7.38-6.75c.34.47.66,1,.95,1.42"/><path class="cls-41" d="M455.2,62.48l-7.38,6.75c-.41-.57-.84-1.14-1.31-1.7l-.09-.12,7.37-6.74.09.11c.47.57.91,1.14,1.32,1.7"/><path class="cls-42" d="M453.79,60.67l-7.37,6.74a32.14,32.14,0,0,0-5.7-5.4l7.38-6.74a32.45,32.45,0,0,1,5.69,5.4"/><path class="cls-41" d="M448.1,55.27,440.72,62c-.57-.42-1.14-.79-1.69-1.12l7.38-6.75c.55.33,1.12.71,1.69,1.13"/><path class="cls-40" d="M446.41,54.14,439,60.89l-.2-.12c-.37-.22-.73-.42-1.09-.59l7.37-6.75c.36.18.73.37,1.1.59l.2.12"/><path class="cls-39" d="M445.11,53.43l-7.37,6.75a10.48,10.48,0,0,0-1.11-.49L444,52.94a10.74,10.74,0,0,1,1.11.49"/><path class="cls-38" d="M444,52.94l-7.37,6.75a9.09,9.09,0,0,0-1-.34L443,52.61a8.83,8.83,0,0,1,1,.33"/><path class="cls-37" d="M443,52.61l-7.38,6.74a8.81,8.81,0,0,0-.94-.2l7.37-6.74a6,6,0,0,1,.95.2"/><path class="cls-36" d="M442.06,52.41l-7.37,6.74a4.86,4.86,0,0,0-.92,0l7.37-6.75a4.86,4.86,0,0,1,.92,0"/><path class="cls-35" d="M441.14,52.36l-7.37,6.75a3.21,3.21,0,0,0-1,.17l7.37-6.74a3.34,3.34,0,0,1,1-.18"/><path class="cls-34" d="M440.18,52.54l-7.37,6.74-.22.09a2.57,2.57,0,0,0-.61.4L439.36,53a2.1,2.1,0,0,1,.6-.4l.22-.09"/></g></g></g><polygon class="cls-43" points="425.3 38.87 417.92 45.61 411.31 37 418.69 30.25 425.3 38.87"/><polygon class="cls-44" points="473.89 98.26 466.51 105 458.98 96.46 466.35 89.71 473.89 98.26"/><polygon class="cls-45" points="478.6 96.1 471.23 102.84 466.51 105 473.89 98.26 478.6 96.1"/><g class="cls-29"><g class="cls-46"><g class="cls-29"><path class="cls-34" d="M423.76,44.16l-7.38,6.75a8.16,8.16,0,0,1,1.54-5.3l7.38-6.74a8.05,8.05,0,0,0-1.54,5.29"/></g></g></g><g class="cls-29"><g class="cls-47"><g class="cls-29"><path class="cls-36" d="M466.35,89.71,459,96.46a12.76,12.76,0,0,1-1.58-.13l7.38-6.75a12.46,12.46,0,0,0,1.58.13"/><path class="cls-37" d="M464.77,89.58l-7.38,6.75a17.84,17.84,0,0,1-2.3-.48l7.38-6.75a15.73,15.73,0,0,0,2.3.48"/><path class="cls-38" d="M462.47,89.1l-7.38,6.75a25.62,25.62,0,0,1-2.47-.83L460,88.28a24.6,24.6,0,0,0,2.47.82"/><path class="cls-39" d="M460,88.28,452.62,95c-.31-.11-.62-.24-.93-.38l7.38-6.74.93.38"/></g></g></g><polygon class="cls-48" points="426.04 53.51 418.67 60.26 410.62 55.04 418 48.29 426.04 53.51"/><polygon class="cls-49" points="418 48.29 410.62 55.04 408.42 46.78 415.79 40.03 418 48.29"/><g class="cls-29"><g class="cls-50"><g class="cls-29"><path class="cls-40" d="M431.15,62.83l-7.37,6.74c-.32-.48-.63-.95-.93-1.43l7.38-6.74.92,1.43"/><path class="cls-39" d="M430.23,61.4l-7.38,6.74c-.67-1-1.28-2.09-1.85-3.11l7.38-6.75c.56,1,1.18,2.07,1.85,3.12"/><path class="cls-38" d="M428.38,58.28,421,65c-.55-1-1.05-2-1.51-2.94l7.38-6.74c.45,1,.95,1.94,1.51,2.93"/><path class="cls-37" d="M426.87,55.35l-7.38,6.74c-.29-.62-.57-1.23-.82-1.83L426,53.51c.26.61.53,1.22.83,1.84"/></g></g></g><g class="cls-29"><g class="cls-51"><g class="cls-29"><path class="cls-42" d="M448.8,81.7l-7.38,6.74a75.76,75.76,0,0,1-8.76-7.87L440,73.82a76.81,76.81,0,0,0,8.76,7.88"/></g></g></g><polygon class="cls-52" points="460.36 94.84 452.99 101.59 444.11 96.4 451.49 89.65 460.36 94.84"/><polygon class="cls-53" points="451.49 89.65 444.11 96.4 441.43 88.44 448.8 81.7 451.49 89.65"/><polygon class="cls-54" points="435.26 75.04 427.88 81.79 420.06 72.28 427.43 65.54 435.26 75.04"/><polygon class="cls-55" points="440.04 73.82 432.66 80.57 427.88 81.79 435.26 75.04 440.04 73.82"/><path class="cls-56" d="M481.5,86.31l-8-4.12A8.07,8.07,0,0,1,472,87.48l6.61,8.62-4.71,2.16-7.54-8.55a19.87,19.87,0,0,1-7.28-1.81l1.29,6.94-8.87-5.19-2.69-8A76.81,76.81,0,0,1,440,73.82L435.26,75l-7.83-9.5,3.72-2.71A57.65,57.65,0,0,1,426,53.51l-8-5.22L415.79,40l8,4.13a8.05,8.05,0,0,1,1.54-5.29l-6.61-8.62,4.72-2.16,7.53,8.55a19.86,19.86,0,0,1,7.29,1.81l-1.3-6.94,8.88,5.19,2.69,7.95a78.55,78.55,0,0,1,8.76,7.88L462,51.3l7.84,9.51-3.73,2.71a56.49,56.49,0,0,1,5.11,9.32l8.05,5.22Zm-24.17-12.6c2.89-1.32,1.35-7.11-3.45-12.93A30.31,30.31,0,0,0,446.21,54c-2.52-1.47-4.8-2.05-6.25-1.39-2.89,1.32-1.34,7.12,3.45,12.94a30.26,30.26,0,0,0,7.67,6.75c2.52,1.48,4.8,2.06,6.25,1.39"/></g><path class="cls-57" d="M77.87,119.29c-5.3,4.57-10.44,5-16.87,13.56l16.47,5.42c6.07-6.51,12.12-14.43,15.37-22.19C97.64,104.56,86,112.29,77.87,119.29Z"/><path class="cls-58" d="M76.14,136.48s19-9.87,22.33-5.21c2.49,3.46-6.81,10.52-14.84,12.39a75.22,75.22,0,0,1-14,1.73Z"/><path class="cls-59" d="M74.1,147l15.17,1.82s7.73,8.79,7.27,12.34c-.42,3.34-4.91,4.1-14.38-3.72-2.15-1.75-17.09-4.2-17.09-4.2Z"/><path class="cls-60" d="M74.81,155.34,89.36,160s5.94,10.08,4.83,13.49c-1,3.19-5.59,3.1-13.43-6.36-1.78-2.13-16-7.33-16-7.33Z"/><polygon class="cls-13" points="31.45 114.23 31.45 114.23 29.9 114.23 29.9 114.23 29.9 109.15 29.9 109.15 31.45 109.15 31.45 109.15 31.45 114.23"/><polygon class="cls-13" points="31.45 127.57 31.45 127.57 29.9 127.57 29.9 127.57 29.9 119 29.9 119 31.45 119 31.45 119 31.45 127.57"/><polygon class="cls-13" points="31.45 137.73 31.45 137.73 29.9 137.73 29.9 137.73 29.9 129.55 29.9 129.55 31.45 129.55 31.45 129.55 31.45 137.73"/><rect class="cls-13" x="30.48" y="94.1" width="56.2" height="116.1" rx="8.26"/><rect class="cls-6" x="31.65" y="95.27" width="53.87" height="113.77" rx="7.09"/><rect class="cls-16" x="34.14" y="108.76" width="48.89" height="87.15"/><rect class="cls-61" x="36.08" y="110.93" width="44.66" height="26.04"/><rect class="cls-16" x="36.08" y="137.33" width="44.66" height="26"/><rect class="cls-61" x="40.31" y="140.97" width="25.62" height="1.71"/><rect class="cls-62" x="40.31" y="144.64" width="29.22" height="1.28"/><rect class="cls-62" x="40.19" y="147.64" width="25.52" height="1.28"/><rect class="cls-5" x="39.89" y="152.69" width="16.7" height="4.57"/><rect class="cls-16" x="43.68" y="154.33" width="9.15" height="1.28"/><path class="cls-63" d="M50.88,161.28c-3.47-2-6.68,2.27-8.93,4.87s-3.48,5.56-7.18,14.51-3.29,2.19-4-7.07-.2-33.27-.2-33.27c-5.76,5.6-8.32,12.18-11.12,20.48-14.9,44.15-1.2,88.27-1.2,88.27,12.49-3.31,26.09-2.21,26.09-2.21,1.52,0-17.21-22.15-12.77-29.43s12.44-18,13.31-21.84,1.84-20.71,3.07-23.69S54.35,163.3,50.88,161.28Z"/><path class="cls-64" d="M120.61,240.09s-2.83-37.49-3.81-39.26-3.31-5.26-6.83-4.63-2.84,1.49-5.66-1.37-3.54-1.07-6.1-.37-3.24-3.18-6.13-2.06l-4.33,1.68-9.48-39.31S73.06,145,74.57,166s4.92,42.15,4.16,46.6-1.6,6.83-6.26,2.87S59.6,203.49,55.06,202s-6.27-.16-6.27-.16,10.82,16.8,16.58,22S83.18,245,91.45,249.06c2.38,1.17,6.51,6.25,7.25,7,2.82,2.82,31.49,8.51,28.65,5.87C122.21,257.15,120.61,240.09,120.61,240.09Z"/><path class="cls-65" d="M113.45,106.36c-20.12.68-53.21-1.31-66.65-6.11S31.09,58.43,40.15,49,75.07,36.83,87.88,36c31.9-2,60.52.4,55.53,28.75C138.22,94.19,135.22,105.63,113.45,106.36Z"/><path class="cls-65" d="M53.19,97.37s-.56,11.2,13.74,19.38c0,0-5.93-16.39,2-23.11C73.7,89.61,53.19,97.37,53.19,97.37Z"/><path class="cls-16" d="M80.78,63.73l-1-3.07-4.17-1.19L75,61.66l3,.86,3.9,11.69-.68,2.44a3.81,3.81,0,1,0,4.29,4.89h6a3.82,3.82,0,1,0,0-2.28h-6a3.81,3.81,0,0,0-2-2.31l.46-1.63h14.2a2,2,0,0,0,2-1.76l2.81-9.83ZM95.13,78.86A1.54,1.54,0,1,1,93.6,80.4,1.54,1.54,0,0,1,95.13,78.86ZM81.86,81.93a1.54,1.54,0,1,1,1.53-1.53A1.53,1.53,0,0,1,81.86,81.93Zm16-8.89h-14l-2.2-7H99.9Z"/><path class="cls-16" d="M247.59,253.78a51.25,51.25,0,0,1,0-9.7,2.7,2.7,0,0,1,2.85-2c1.8,0,2.79,1,3,3,0,.13,0,.21-.16.23l-1.11.22c-.14,0-.21,0-.21-.16-.09-1.18-.58-1.77-1.46-1.77a1.26,1.26,0,0,0-1.33.91,57.16,57.16,0,0,0,0,8.81,1.26,1.26,0,0,0,1.33.92c.88,0,1.37-.59,1.46-1.78,0-.12.07-.18.21-.15l1.11.21a.2.2,0,0,1,.16.24c-.17,2-1.16,3-3,3A2.7,2.7,0,0,1,247.59,253.78Z"/><path class="cls-16" d="M257.94,255.73a2.75,2.75,0,0,1-2.91-2,5.39,5.39,0,0,1-.2-1.3c0-.56-.05-1.74-.05-3.53s0-3,.05-3.53a5.3,5.3,0,0,1,.2-1.3,2.74,2.74,0,0,1,2.91-2,2.69,2.69,0,0,1,2.9,2,5.75,5.75,0,0,1,.21,1.3c0,.56,0,1.74,0,3.53s0,3,0,3.53a5.85,5.85,0,0,1-.21,1.3A2.7,2.7,0,0,1,257.94,255.73Zm0-1.48a1.3,1.3,0,0,0,1.4-.94,60.17,60.17,0,0,0,0-8.77,1.51,1.51,0,0,0-2.79,0,56.64,56.64,0,0,0,0,8.77A1.3,1.3,0,0,0,257.94,254.25Z"/><path class="cls-16" d="M263.22,255.36V242.5c0-.13.06-.2.19-.2h2.75a2.86,2.86,0,0,1,3.06,2.07,33.69,33.69,0,0,1,0,9.12,2.85,2.85,0,0,1-3.06,2.06h-2.75A.17.17,0,0,1,263.22,255.36ZM264.8,254a.1.1,0,0,0,.11.11H266a1.6,1.6,0,0,0,1.68-1.13,32.61,32.61,0,0,0,0-8.06,1.6,1.6,0,0,0-1.68-1.13h-1.09a.1.1,0,0,0-.11.11Z"/><path class="cls-16" d="M271.65,255.36V242.5a.18.18,0,0,1,.2-.2h5c.13,0,.19.07.19.2v1.07c0,.13-.06.2-.19.2h-3.51c-.08,0-.12,0-.12.11V248a.11.11,0,0,0,.12.12h3a.17.17,0,0,1,.19.19v1.08a.17.17,0,0,1-.19.19h-3a.11.11,0,0,0-.12.12V254c0,.07,0,.11.12.11h3.51c.13,0,.19.07.19.2v1.07a.17.17,0,0,1-.19.19h-5C271.72,255.55,271.65,255.49,271.65,255.36Z"/><path class="cls-16" d="M224.36,32.61,227,20.74c0-.12.1-.18.2-.18h1.08c.11,0,.17.06.2.18L231,32.61c0,.12,0,.18-.16.18h-1.08a.19.19,0,0,1-.2-.18L229,29.93h-2.71l-.54,2.68q0,.18-.18.18h-1.08C224.38,32.79,224.33,32.73,224.36,32.61Zm2.21-3.94h2.21l-1-5.33h-.06Z"/><path class="cls-16" d="M233.69,32.79h-1.1a.16.16,0,0,1-.18-.18V20.74a.16.16,0,0,1,.18-.18h2.14a3.28,3.28,0,0,1,2.49.85,4,4,0,0,1,.82,2.82,3.91,3.91,0,0,1-.83,2.79,3.25,3.25,0,0,1-2.48.87H234a.1.1,0,0,0-.11.11v4.61A.16.16,0,0,1,233.69,32.79Zm1-6.24a1.77,1.77,0,0,0,1.43-.52,2.9,2.9,0,0,0,.42-1.8,2.9,2.9,0,0,0-.42-1.8,1.73,1.73,0,0,0-1.43-.52H234c-.07,0-.11,0-.11.1v4.43a.1.1,0,0,0,.11.11Z"/><path class="cls-16" d="M241,32.79h-1.1a.16.16,0,0,1-.18-.18V20.74a.16.16,0,0,1,.18-.18h2.14a3.28,3.28,0,0,1,2.49.85,4,4,0,0,1,.82,2.82,4,4,0,0,1-.82,2.79,3.29,3.29,0,0,1-2.49.87h-.75a.1.1,0,0,0-.11.11v4.61A.16.16,0,0,1,241,32.79Zm1-6.24a1.77,1.77,0,0,0,1.43-.52,2.89,2.89,0,0,0,.43-1.8,2.89,2.89,0,0,0-.43-1.8,1.73,1.73,0,0,0-1.43-.52h-.75c-.07,0-.11,0-.11.1v4.43a.1.1,0,0,0,.11.11Z"/><path class="cls-5" d="M437,149.74h-1q-.13,0-.18-.18l-1.42-8.71h0l-1.48,8.71q0,.18-.18.18h-.95q-.15,0-.18-.18l-1.94-11.87c0-.12,0-.18.14-.18h1.1a.17.17,0,0,1,.19.18l1.19,8.77h0l1.49-8.77q0-.18.18-.18h.79q.16,0,.18.18l1.49,8.77h0l1.22-8.77a.18.18,0,0,1,.2-.18H439q.18,0,.15.18l-1.95,11.87Q437.15,149.74,437,149.74Z"/><path class="cls-5" d="M440.65,149.56V137.69a.16.16,0,0,1,.18-.18h4.63a.16.16,0,0,1,.18.18v1a.16.16,0,0,1-.18.18h-3.24c-.07,0-.11,0-.11.1v3.82a.1.1,0,0,0,.11.11H445a.16.16,0,0,1,.18.18v1a.16.16,0,0,1-.18.18h-2.81a.1.1,0,0,0-.11.11v3.94a.1.1,0,0,0,.11.11h3.24a.16.16,0,0,1,.18.18v1a.16.16,0,0,1-.18.18h-4.63A.16.16,0,0,1,440.65,149.56Z"/><path class="cls-5" d="M447.26,149.56V137.69a.16.16,0,0,1,.18-.18h2.32a3.15,3.15,0,0,1,2.32.73,3.39,3.39,0,0,1,.72,2.41,2.62,2.62,0,0,1-1.43,2.68v0c1,.32,1.55,1.28,1.55,2.86a3.78,3.78,0,0,1-.79,2.72,3.54,3.54,0,0,1-2.55.79h-2.14A.16.16,0,0,1,447.26,149.56Zm1.56-6.77h.86a1.62,1.62,0,0,0,1.26-.42,2.35,2.35,0,0,0,.38-1.54,2.47,2.47,0,0,0-.36-1.56,1.67,1.67,0,0,0-1.31-.41h-.83c-.07,0-.11,0-.11.1v3.73C448.71,142.76,448.75,142.79,448.82,142.79Zm-.11,5.49a.1.1,0,0,0,.11.11h.81a1.8,1.8,0,0,0,1.41-.47,2.67,2.67,0,0,0,.41-1.71,2.59,2.59,0,0,0-.41-1.67,1.72,1.72,0,0,0-1.36-.47h-.86a.1.1,0,0,0-.11.11Z"/><path class="cls-3" d="M171.48,212.79l2.83-12.86a.21.21,0,0,1,.21-.19h1.17a.19.19,0,0,1,.21.19l2.79,12.86c0,.13,0,.19-.18.19h-1.16a.21.21,0,0,1-.22-.19l-.58-2.9h-3l-.58,2.9c0,.13-.09.19-.2.19h-1.16C171.51,213,171.45,212.92,171.48,212.79Zm2.4-4.27h2.39l-1.13-5.76h-.06Z"/><path class="cls-3" d="M181.59,213H180.4a.17.17,0,0,1-.19-.19V199.93a.17.17,0,0,1,.19-.19h2.32a3.56,3.56,0,0,1,2.7.92,5.61,5.61,0,0,1,0,6.08,3.54,3.54,0,0,1-2.69.94h-.82c-.07,0-.11,0-.11.12v5C181.79,212.92,181.72,213,181.59,213Zm1.13-6.76a1.9,1.9,0,0,0,1.55-.55,4.38,4.38,0,0,0,0-3.91,1.87,1.87,0,0,0-1.55-.56h-.82a.1.1,0,0,0-.11.11v4.8a.1.1,0,0,0,.11.11Z"/><path class="cls-3" d="M188.14,212.79V199.93c0-.13.06-.19.2-.19h1.18c.13,0,.2.06.2.19v12.86c0,.13-.07.19-.2.19h-1.18C188.2,213,188.14,212.92,188.14,212.79Z"/></svg>