<svg id="Layer_1" data-name="Layer 1" xmlns="http://www.w3.org/2000/svg" xmlns:xlink="http://www.w3.org/1999/xlink" viewBox="0 0 328.06 671.05"><defs><style>.cls-1{fill:#fff;}.cls-2{fill:#f89b86;}.cls-3{fill:#afafaf;}.cls-4{fill:url(#linear-gradient);}.cls-5{fill:#faf9f9;opacity:0.2;isolation:isolate;}.cls-6{fill:url(#radial-gradient);}.cls-7{fill:url(#linear-gradient-2);}.cls-8{fill:url(#linear-gradient-3);}.cls-9{fill:url(#linear-gradient-4);}.cls-10{fill:url(#linear-gradient-5);}.cls-11{fill:#f6e5e5;}.cls-12{fill:#cdd9ff;}.cls-13{fill:#700531;}.cls-14{fill:#c92d4f;}.cls-15{fill:#d34848;}.cls-16{fill:#ff8162;}.cls-17{fill:#a2a8d3;}.cls-18{fill:#fff8fa;}.cls-19{fill:#ff6680;}.cls-20{fill:#ffdee6;}.cls-21{fill:#ff0b55;}.cls-22{fill:#d61d4e;}</style><linearGradient id="linear-gradient" x1="-160.99" y1="-1504.56" x2="229.54" y2="-1949.75" gradientTransform="matrix(1, 0, 0, -1, 0.14, -1750.1)" gradientUnits="userSpaceOnUse"><stop offset="0" stop-color="#6ff1fe"/><stop offset="0.99" stop-color="#fc9f8a"/></linearGradient><radialGradient id="radial-gradient" cx="-6345.91" cy="-461.45" r="1" gradientTransform="matrix(175.69, 0, 0, -175.69, 1114986.19, -81038.93)" gradientUnits="userSpaceOnUse"><stop offset="0" stop-color="#ffe79a"/><stop offset="1" stop-color="#ffe79a" stop-opacity="0"/></radialGradient><linearGradient id="linear-gradient-2" x1="70.66" y1="-1842" x2="70.66" y2="-1882.4" gradientTransform="matrix(1, 0, 0, -1, 0.14, -1750.1)" gradientUnits="userSpaceOnUse"><stop offset="0" stop-color="#fff"/><stop offset="1" stop-color="#fff" stop-opacity="0"/></linearGradient><linearGradient id="linear-gradient-3" x1="106.91" y1="-1912.37" x2="106.91" y2="-1962.93" xlink:href="#linear-gradient-2"/><linearGradient id="linear-gradient-4" x1="278.51" y1="-1794.76" x2="278.51" y2="-1829.02" xlink:href="#linear-gradient-2"/><linearGradient id="linear-gradient-5" x1="286.01" y1="-1929.09" x2="286.01" y2="-1958.94" xlink:href="#linear-gradient-2"/></defs><path class="cls-1" d="M15,2.15H313a13,13,0,0,1,13,13v609a13,13,0,0,1-13,13H15a13,13,0,0,1-13-13v-609A13,13,0,0,1,15,2.15Z"/><path class="cls-2" d="M313,639.15H15a15,15,0,0,1-15-15v-609a15,15,0,0,1,15-15H313a15,15,0,0,1,15,15v609A15,15,0,0,1,313,639.15ZM15,4.15a11,11,0,0,0-11,11v609a11,11,0,0,0,11,11H313a11,11,0,0,0,11-11v-609a11,11,0,0,0-11-11Z"/><path class="cls-2" d="M97,607.05H231a32,32,0,0,1,0,64H97a32,32,0,1,1,0-64Z"/><path class="cls-3" d="M203.72,373.75l-3.8-4-3.9,4-3.8-4-3.8,4-3.8-4-3.9,4-3.8-4-3.8,4-3.9-4-3.8,4-3.8-4-3.8,4-3.9-4-3.8,4-3.8-4-3.8,4-3.9-4-3.8,4-3.8-4-3.9,4-3.8-4-3.8,4-3.8-4-3.9,4-4.2-4.4.8-.6,3.4,3.6,3.9-4,3.8,4,3.8-4,3.8,4,3.9-4,3.8,4,3.8-4,3.9,4,3.8-4,3.8,4,3.8-4,3.9,4,3.8-4,3.8,4,3.8-4,3.9,4,3.8-4,3.8,4,3.9-4,3.8,4,3.8-4,3.8,4,3.9-4,3.8,4,3.8-4,3.9,4,3.8-4,4.2,4.4-.7.6-3.5-3.6-3.8,4-3.9-4Z"/><path class="cls-4" d="M19.75,245.6c23,15.8,33.1,15.4,49.7,1.2S84.05,282,166,282s80-49.4,96.6-35.2,26.6,14.6,49.7-1.2a28.87,28.87,0,0,1,15.8-5.4V15.4A15,15,0,0,0,313.55.2H166L13.55.1C11.55.1.05,3.5.05,14.6s.2,225.8.2,225.8C6.25,239.7,12.85,240.9,19.75,245.6Z"/><path class="cls-5" d="M243.25,91.2c-62.4,27.2,6.3,134.7-90.9,124.3-78.2-8.4-96.2,27.3-100.3,41.5,5.6-1.2,11-4.6,17.4-10.1C86,232.7,84.05,282,166,282c17.5,0,31.1-2.2,41.9-5.6,29.8-22.7,42.9-61,43.7-98.1,1.5-69.7,53-62.5,48.7-117.6S326,7.7,326,7.7s-.1-1.4-3.3-4a14.17,14.17,0,0,0-6.1-3.1C247.15.6,305.65,64,243.25,91.2Z"/><path class="cls-6" d="M13.55,0C10.05,0,.15,4.6.05,13.7s.2,208.6.2,208.6c2.8.1,5.6.2,8.5.2,116.5,0,210.9-94.4,210.9-210.9,0-3.9-.1-7.7-.3-11.5h-53.2C166.15.2,17.05,0,13.55,0Z"/><path class="cls-7" d="M24.64,121.82c22.9.8,19.4-20,29.1-22.7s9.6,8.81,16.5,9.2,6.5-5.79,16.1-6.29,7.3,11.29,16.9,12.5,13.7,7.19,13.7,7.19H24.64Z"/><path class="cls-8" d="M71.14,205.82h71.8s-2.3-12.39-17.9-11-6-7.39-17.9-12.39-6.4,13.8-17,13.8S85.44,206.82,71.14,205.82Z"/><path class="cls-9" d="M254.34,74.22h48.6s-1.6-8.4-12.2-7.5-4-5-12.2-8.39-4.4,9.29-11.5,9.29S263.94,74.82,254.34,74.22Z"/><path class="cls-10" d="M320.24,201.12c-16.9.61-14.4-14.8-21.5-16.8s-7.1,6.5-12.2,6.8-4.8-4.3-11.9-4.69-5.4,8.39-12.5,9.3S252,201,252,201h68.2Z"/><path class="cls-11" d="M121.6,275.65q3.9,1.05,8.1,2.4Q125.35,276.85,121.6,275.65Z"/><path class="cls-12" d="M172.41,206.61h-16.5v-4h.9v3.2h14.8v-3.2h.9v4Z"/><path class="cls-13" d="M155.87,206.13a1.32,1.32,0,0,1,1.3,1.3v13.1h-2.7v-13.1A1.49,1.49,0,0,1,155.87,206.13Z"/><path class="cls-14" d="M155.27,206.23a1.2,1.2,0,0,0-.7,1v13.3H156v-13.3A1.45,1.45,0,0,0,155.27,206.23Z"/><path class="cls-13" d="M172.37,206.13a1.42,1.42,0,0,1,1.4,1.3v13.1h-2.7v-13.1A1.32,1.32,0,0,1,172.37,206.13Z"/><path class="cls-14" d="M171.67,206.23a1.2,1.2,0,0,0-.7,1v13.3h1.4v-13.3A1.2,1.2,0,0,0,171.67,206.23Z"/><path class="cls-15" d="M176.17,216.43V219a31.2,31.2,0,0,1-24,0v-2.6a.79.79,0,0,1,.8-.8.9.9,0,0,1,.5.1,22.21,22.21,0,0,0,21.5,0,.93.93,0,0,1,1.2.2Z"/><path class="cls-15" d="M176.17,229.13v2.8a3.22,3.22,0,0,1-3.2,3.2h-17.6a3.22,3.22,0,0,1-3.2-3.2v-2.8a3.22,3.22,0,0,0,3.2,3.2H173A3.22,3.22,0,0,0,176.17,229.13Z"/><path class="cls-16" d="M152.17,219v10.1a3.22,3.22,0,0,0,3.2,3.2H173a3.22,3.22,0,0,0,3.2-3.2V219A31.2,31.2,0,0,1,152.17,219Z"/><path class="cls-12" d="M166.37,201.93h-4.5v4.2h4.5Z"/><path class="cls-17" d="M164.17,206.13h-2.3a4.25,4.25,0,0,0,1.6,2.1h1.3a3.12,3.12,0,0,0,1.6-2.1Z"/><path class="cls-1" d="M177,195.23l-.1.2Z"/><path class="cls-18" d="M215.27,124.83c20.7-43.7-19.2-73.5-19.5-73.8a94,94,0,0,0-11.7-2.6c-1.3-.2-2.6-.4-4-.5,8.1,7.2,18.4,20.3,22.5,42.4,7.2,38.4-33.3,112.2-33.3,112.2h3.1l.1-.1c.3-.5,1.6-2.6,3.7-5.9A776.5,776.5,0,0,0,215.27,124.83Z"/><path class="cls-18" d="M125.67,90.33c4.1-22,14.5-35.2,22.5-42.4-1.3.2-2.6.3-3.9.5a95.56,95.56,0,0,0-11.8,2.6c-.3.2-40.2,30.1-19.5,73.8a753.45,753.45,0,0,0,39.1,71.7l-.1-.1c2.4,3.8,3.8,6.1,3.8,6.1h3.1C159,202.53,118.47,128.73,125.67,90.33Z"/><path class="cls-18" d="M164.87,47.13h-1.4c-7.3,7.7-16.6,23.5-16.4,53.2.3,48.4,17.2,102.3,17.2,102.3s16.8-53.9,17.2-102.3C181.47,70.53,172.17,54.83,164.87,47.13Z"/><path class="cls-19" d="M132.57,51c-44.1,12.7-46.5,52.9-26.8,78.4,18.3,23.6,38.2,54.3,46.3,67.1a776.5,776.5,0,0,1-39.1-71.7C92.27,80.93,132.57,51,132.57,51Z"/><path class="cls-14" d="M132.57,51s-25.8,12.5-30.1,41.5c-2.6,17.7,19.2,55.3,36.7,82.1-7.6-13.4-16.9-30.6-26-49.8C92.27,80.93,132.57,51,132.57,51Z"/><path class="cls-19" d="M195.77,51c44.1,12.7,46.5,52.9,26.8,78.4-18.3,23.6-38.2,54.3-46.3,67.1a776.5,776.5,0,0,0,39.1-71.7C236,80.93,195.77,51,195.77,51Z"/><path class="cls-14" d="M195.77,51s25.8,12.5,30.1,41.5c2.6,17.7-19.2,55.3-36.7,82.1,7.6-13.4,16.9-30.6,26-49.8C236,80.93,195.77,51,195.77,51Z"/><path class="cls-19" d="M164.87,47c1.1,0,2.2,0,3.3.1,4.2.1,8.2.4,11.9.8,8.1,7.2,18.4,20.3,22.5,42.4,7.2,38.4-33.3,112.2-33.3,112.2h-5.1s16.8-53.9,17.2-102.3C181.47,70.53,172.17,54.83,164.87,47Z"/><path class="cls-14" d="M202.57,90.33c-4.1-22-14.5-35.2-22.5-42.4-1.3-.1-2.6-.3-3.9-.4.3.3,19.1,16.1,15.5,65.3-3.7,49.6-23.4,89.1-23.4,89.1a3.22,3.22,0,0,1,.2.6h.8S209.77,128.73,202.57,90.33Z"/><path class="cls-19" d="M163.37,47c-1.1,0-2.2,0-3.3.1-4.2.1-8.2.4-11.9.8-8.1,7.2-18.4,20.3-22.5,42.4-7.2,38.4,33.3,112.2,33.3,112.2h5.1s-16.8-53.9-17.2-102.3C146.77,70.53,156.17,54.83,163.37,47Z"/><path class="cls-14" d="M136.47,96.13c-2.3,35.4,25.4,105.8,25.4,105.8l2.1.1c-1.7-5.7-16.7-56.2-17-101.7-.2-29.7,9.2-45.5,16.4-53.2-1.1,0-2.2,0-3.3.1C158.57,47.13,138.67,60.73,136.47,96.13Z"/><path class="cls-20" d="M125.67,90.33c4.1-22,14.5-35.2,22.5-42.4-.1,0-30.6,19.3-30,51s40.7,103.5,40.7,103.5S118.47,128.73,125.67,90.33Z"/><path class="cls-20" d="M181.27,100.23c.2-29.7-9.2-45.5-16.4-53.2h-1.4a53.3,53.3,0,0,0-7.1,9.8c4.8,8.4,11.9,27.1,11.9,64.2,0,55.9-4.1,81.5-4.1,81.5S181,148.63,181.27,100.23Z"/><path class="cls-20" d="M195.77,51c-2.6-.8-5.4-1.4-8.4-2,7.2,5.5,18.8,17.3,24.4,38.2,6.5,24.1-20.8,81.1-33.7,106.2a745.9,745.9,0,0,0,37.2-68.7C236,81.13,196.07,51.33,195.77,51Z"/><path class="cls-21" d="M152.17,196.53c2.4,3.8,3.8,6,3.8,6h16.5l.1-.1c.3-.5,1.6-2.6,3.7-5.9A30.57,30.57,0,0,0,152.17,196.53Z"/><path class="cls-21" d="M152.17,196.53c2.4,3.8,3.8,6,3.8,6h16.5l.1-.1c.3-.5,1.6-2.6,3.7-5.9A30.57,30.57,0,0,0,152.17,196.53Z"/><path class="cls-1" d="M131.84,113h.1a1.22,1.22,0,0,0,1.2-1.4c-.1-1.8-.1-3.6-.1-5.4a1.3,1.3,0,1,0-2.6,0c0,1.8.1,3.6.1,5.5A1.72,1.72,0,0,0,131.84,113Z"/><path class="cls-1" d="M132.3,95.17a1.4,1.4,0,0,0,1.4-1.2c1.5-15.1,5.3-23.1,5.4-23.2a1.32,1.32,0,0,0-2.3-1.3.1.1,0,0,1-.1.1c-.2.3-4.1,8.6-5.6,24.1A1.36,1.36,0,0,0,132.3,95.17Z"/><path class="cls-22" d="M155.87,202.53h16.5l.1-.1c.3-.5,1.6-2.6,3.7-5.9l-3.8,4.3h-16l-4.2-4.3C154.57,200.33,155.87,202.53,155.87,202.53Z"/><path class="cls-1" d="M154.57,230.79a.47.47,0,0,1-.5-.5v-1.4a.5.5,0,0,1,1,0v1.4A.47.47,0,0,1,154.57,230.79Z"/><path class="cls-1" d="M154.57,226.88a.47.47,0,0,1-.5-.5V221a.5.5,0,1,1,1,0v5.4A.47.47,0,0,1,154.57,226.88Z"/><path class="cls-11" d="M.3,275.05v7A20.57,20.57,0,0,1,.3,275.05Z"/><path class="cls-11" d="M327.7,282.05v-7A20.57,20.57,0,0,1,327.7,282.05Z"/></svg>