<svg id="Layer_1" data-name="Layer 1" xmlns="http://www.w3.org/2000/svg" xmlns:xlink="http://www.w3.org/1999/xlink" viewBox="0 0 328.06 671.05"><defs><style>.cls-1{fill:#fff;}.cls-2{fill:#f96745;}.cls-3{fill:#afafaf;}.cls-4{fill:url(#linear-gradient);}.cls-5{fill:#faf9f9;opacity:0.2;}.cls-28,.cls-29,.cls-5{isolation:isolate;}.cls-6{fill:url(#radial-gradient);}.cls-7{fill:url(#linear-gradient-2);}.cls-8{fill:url(#linear-gradient-3);}.cls-9{fill:url(#linear-gradient-4);}.cls-10{fill:url(#linear-gradient-5);}.cls-11{fill:url(#linear-gradient-6);}.cls-12{fill:#b50f42;}.cls-13{fill:#700531;}.cls-14{fill:#bdffff;}.cls-15{fill:#bc1600;}.cls-16{fill:#ff2400;}.cls-17{fill:#ffa1b5;}.cls-18{fill:#c92d4f;}.cls-19{fill:#ff6680;}.cls-20,.cls-28,.cls-29{fill:#ffdee6;}.cls-21{fill:#fff8fa;}.cls-22{fill:url(#linear-gradient-7);}.cls-23{fill:url(#linear-gradient-8);}.cls-24{fill:url(#linear-gradient-9);}.cls-25{fill:url(#linear-gradient-10);}.cls-26{fill:url(#linear-gradient-11);}.cls-27{mask:url(#mask);}.cls-28{opacity:0.1;}.cls-29{opacity:0.15;}</style><linearGradient id="linear-gradient" x1="94.97" y1="-1792.85" x2="351.1" y2="-2098.16" gradientTransform="matrix(1, 0, 0, -1, 0.14, -1750.1)" gradientUnits="userSpaceOnUse"><stop offset="0" stop-color="#f96745"/><stop offset="0.99" stop-color="#4093e0"/></linearGradient><radialGradient id="radial-gradient" cx="-6698.25" cy="-461.36" r="1" gradientTransform="matrix(178.15, 0, 0, -177.98, 1193366.88, -82076.1)" gradientUnits="userSpaceOnUse"><stop offset="0" stop-color="#ffe79a"/><stop offset="1" stop-color="#ffe79a" stop-opacity="0"/></radialGradient><linearGradient id="linear-gradient-2" x1="70.7" y1="-1841.95" x2="70.7" y2="-1882.35" gradientTransform="matrix(1, 0, 0, -1, 0.14, -1750.1)" gradientUnits="userSpaceOnUse"><stop offset="0" stop-color="#fff"/><stop offset="1" stop-color="#fff" stop-opacity="0"/></linearGradient><linearGradient id="linear-gradient-3" x1="106.95" y1="-1912.32" x2="106.95" y2="-1962.88" xlink:href="#linear-gradient-2"/><linearGradient id="linear-gradient-4" x1="278.55" y1="-1794.72" x2="278.55" y2="-1828.97" xlink:href="#linear-gradient-2"/><linearGradient id="linear-gradient-5" x1="181.35" y1="-1766.18" x2="181.35" y2="-1790.98" xlink:href="#linear-gradient-2"/><linearGradient id="linear-gradient-6" x1="286.05" y1="-1929.04" x2="286.05" y2="-1958.89" xlink:href="#linear-gradient-2"/><linearGradient id="linear-gradient-7" x1="70.35" y1="-1841.82" x2="70.35" y2="-1882.17" xlink:href="#linear-gradient-2"/><linearGradient id="linear-gradient-8" x1="106.7" y1="-1912.11" x2="106.7" y2="-1962.6" xlink:href="#linear-gradient-2"/><linearGradient id="linear-gradient-9" x1="278.6" y1="-1794.7" x2="278.6" y2="-1828.9" xlink:href="#linear-gradient-2"/><linearGradient id="linear-gradient-10" x1="181.2" y1="-1766.13" x2="181.2" y2="-1790.89" xlink:href="#linear-gradient-2"/><linearGradient id="linear-gradient-11" x1="286.1" y1="-1928.8" x2="286.1" y2="-1958.61" xlink:href="#linear-gradient-2"/><mask id="mask" x="302.95" y="-60.95" width="243.08" height="246.7" maskUnits="userSpaceOnUse"/></defs><path class="cls-1" d="M15.1,2h298a13,13,0,0,1,13,13V624a13,13,0,0,1-13,13H15.1a13,13,0,0,1-13-13V15A13,13,0,0,1,15.1,2Z"/><path class="cls-2" d="M313.1,639H15.1a15,15,0,0,1-15-15V15a15,15,0,0,1,15-15h298a15,15,0,0,1,15,15V624A15,15,0,0,1,313.1,639ZM15.1,4a11,11,0,0,0-11,11V624a11,11,0,0,0,11,11h298a11,11,0,0,0,11-11V15a11,11,0,0,0-11-11Z"/><path class="cls-2" d="M97,607H231a32,32,0,0,1,0,64H97a32,32,0,0,1,0-64Z"/><path class="cls-3" d="M211.5,373.7l-3.9-4-3.8,4-3.8-4-3.9,4-3.8-4-3.8,4-3.8-4-3.9,4-3.8-4-3.8,4-3.9-4-3.8,4-3.8-4-3.8,4-3.9-4-3.8,4-3.8-4-3.8,4-3.9-4-3.8,4-3.8-4-3.9,4-3.8-4-3.8,4-3.8-4-3.9,4-4.2-4.4.8-.6,3.4,3.6,3.9-4,3.8,4,3.8-4,3.8,4,3.9-4,3.8,4,3.8-4,3.9,4,3.8-4,3.8,4,3.8-4,3.9,4,3.8-4,3.8,4,3.8-4,3.9,4,3.8-4,3.8,4,3.9-4,3.8,4,3.8-4,3.8,4,3.9-4,3.8,4,3.8-4,3.9,4,3.8-4,4.2,4.4-.7.6-3.5-3.6Z"/><path class="cls-4" d="M19.8,245.6c23,15.8,33.1,15.4,49.7,1.2S84.1,282,166,282s80-49.4,96.6-35.2,26.6,14.6,49.7-1.2a28.87,28.87,0,0,1,15.8-5.4V15.4A15,15,0,0,0,313.6.2H166L13.5.1C11.4.1,0,3.5,0,14.6S.2,240.4.2,240.4C6.3,239.6,12.9,240.8,19.8,245.6Z"/><path class="cls-5" d="M243.3,91.1c-62.4,27.2,6.3,134.7-90.9,124.3-78.2-8.3-96.2,27.3-100.3,41.5,5.6-1.2,11-4.6,17.4-10.1C86.1,232.6,84.1,282,166,282c17.5,0,31.1-2.2,42-5.6,29.8-22.7,42.9-61,43.7-98.1,1.5-69.7,53-62.5,48.7-117.6s25.7-53,25.7-53-.1-1.4-3.3-4A14.17,14.17,0,0,0,316.7.6C247.3.6,305.7,63.9,243.3,91.1Z"/><path class="cls-6" d="M13.6,0C10.1,0,.2,4.6.1,13.7S.3,222.3.3,222.3c2.8.1,5.6.2,8.5.2,116.5,0,210.9-94.4,210.9-210.9,0-3.9-.1-7.7-.3-11.5H166.2Z"/><path class="cls-7" d="M24.69,121.82c22.9.8,19.4-20,29.1-22.7s9.6,8.81,16.5,9.2,6.5-5.79,16.1-6.29,7.3,11.29,16.9,12.5,13.7,7.19,13.7,7.19H24.69Z"/><path class="cls-8" d="M71.19,205.82H143s-2.3-12.39-17.9-11-6-7.39-17.9-12.39-6.4,13.8-17,13.8S85.49,206.73,71.19,205.82Z"/><path class="cls-9" d="M254.39,74.22H303s-1.6-8.4-12.2-7.5-4-5-12.2-8.39-4.4,9.29-11.5,9.29S264,74.82,254.39,74.22Z"/><path class="cls-10" d="M163.89,37.43h35.2s-1.1-6.1-8.8-5.4-2.9-3.6-8.8-6.1-3.2,6.8-8.3,6.8S170.89,37.93,163.89,37.43Z"/><path class="cls-11" d="M320.29,201.12c-16.9.61-14.4-14.8-21.5-16.8s-7.1,6.5-12.2,6.8-4.8-4.3-11.9-4.69-5.4,8.39-12.5,9.3-10.1,5.29-10.1,5.29h68.2Z"/><path class="cls-12" d="M182.19,183.81h44a20.31,20.31,0,0,1-20.3,20.3h-11.1a12.72,12.72,0,0,1-12.7-12.7v-7.6Z"/><path class="cls-13" d="M186.39,202.31h18.2a14.77,14.77,0,0,0,14.8-14.8v-.3h-37.2v7.2A9.59,9.59,0,0,0,186.39,202.31Z"/><path class="cls-14" d="M222.09,198.61a15.29,15.29,0,0,0,3.5-6.5h-26.7c0,3.6,5,6.5,11.1,6.5Z"/><path class="cls-15" d="M115.69,115.58v20.9H70.5V97.68h9.9v15.8h32.1Z"/><path class="cls-16" d="M91.6,99.48a11.14,11.14,0,0,0-6.1-1.8h-5v15.8h32.1Z"/><path class="cls-13" d="M115.69,136.58v20.9L91.5,173.58a11.14,11.14,0,0,1-6.1,1.8H70.5V175a10.76,10.76,0,0,0,2.9-1.3l24.2-16.1v-20.9h18.09Z"/><path class="cls-12" d="M70.5,174.88a10.76,10.76,0,0,0,2.9-1.3l24.2-16.1v-20.9H70.5Z"/><path class="cls-1" d="M287.7,129.88a48.37,48.37,0,0,0-16-32.7c-8-7.4-19.91-13.5-34.91-16.6a137.57,137.57,0,0,0-76.39,7.3c-36.51,15.1-84,35-103.81,41.8-2.4.8-4.3,1.5-5.8,2a22.2,22.2,0,0,1-7.2,1.2c-2.1,0-3.9,1.5-3.9,3.2s1.7,3.2,3.9,3.2a22.2,22.2,0,0,1,7.2,1.2c1.5.5,3.5,1.2,5.8,2,19.8,6.7,67.3,26.7,103.81,41.8a137.4,137.4,0,0,0,76.39,7.3c15-3.1,26.91-9.2,34.91-16.6,10.69-9.9,14.79-21.4,15.9-32.7a7.84,7.84,0,0,1,4.6-6.1A8.69,8.69,0,0,1,287.7,129.88Z"/><path class="cls-17" d="M287.7,129.88a48.37,48.37,0,0,0-16-32.7c-8-7.4-19.91-13.5-34.91-16.6a137.57,137.57,0,0,0-76.39,7.3c-36.51,15.1-84,35-103.81,41.8-2.4.8-4.3,1.5-5.8,2a22.2,22.2,0,0,1-7.2,1.2c-2.1,0-3.9,1.5-3.9,3.2s1.7,3.2,3.9,3.2a22.2,22.2,0,0,1,7.2,1.2c1.5.5,3.5,1.2,5.8,2,19.8,6.7,67.3,26.7,103.81,41.8a137.4,137.4,0,0,0,76.39,7.3c15-3.1,26.91-9.2,34.91-16.6,10.69-9.9,14.79-21.4,15.9-32.7a7.84,7.84,0,0,1,4.6-6.1A8.69,8.69,0,0,1,287.7,129.88Z"/><path class="cls-18" d="M288.89,138.88l-249.2-2.7a7.38,7.38,0,0,0,4.1,2.1c.7.1,3,.9,6,1.9l.9.3.2.1,20.2,6.4,37.2,14.6s70.81,19.1,112.2,17,67.11-36.4,67.11-36.4A8.94,8.94,0,0,1,288.89,138.88Z"/><path class="cls-19" d="M292.39,136.08a8.17,8.17,0,0,0-4.19,4.4c-2.5,1.5-6.6,2.9-13.1,4.2-8.21,1.6-20.31,3-35.61,3.7-13.79.6-29.09.7-43.5.3-12.5-.3-24.2-1-34.29-1.9-37.1-3.3-85.51-7.8-105.71-9.3-2.4-.2-4.4-.3-5.9-.4-2.3-.2-4.8-.3-7.3-.3a24.52,24.52,0,0,1-2.7-.2v-1.1a24.52,24.52,0,0,1,2.7-.2c2.5,0,5-.1,7.3-.3,1.5-.1,3.5-.3,5.9-.4,20.2-1.5,68.61-5.9,105.71-9.3,10.09-.9,21.9-1.6,34.29-1.9,14.41-.4,29.71-.3,43.5.3,15.3.7,27.4,2.1,35.61,3.7,6.5,1.3,10.7,2.7,13.2,4.2A7.24,7.24,0,0,0,292.39,136.08Z"/><path class="cls-19" d="M36.5,131.78c0-2.3.6-4.2,1.3-4.2s1.3,1.9,1.3,4.2a8,8,0,0,1-1.3,4.2A7.71,7.71,0,0,1,36.5,131.78Z"/><path class="cls-19" d="M39.1,140.28c0,2.3-.6,4.2-1.3,4.2s-1.3-1.9-1.3-4.2a8,8,0,0,1,1.3-4.2A8.65,8.65,0,0,1,39.1,140.28Z"/><path class="cls-20" d="M40.09,135.48h-3.7a.55.55,0,1,0-.1,1.1h3.9A.91.91,0,0,0,40.09,135.48Z"/><path class="cls-13" d="M115.69,133.78l-9.09,4.8a53.46,53.46,0,0,1-24,5.4h-25l6.4-3.4H80c8.8,0,17.4-1.9,24-5.4l2.69-1.4Z"/><path class="cls-12" d="M80.09,140.48c8.8,0,17.4-1.9,24-5.4l2.69-1.4H77l-12.9,6.8Z"/><path class="cls-13" d="M185.58,168c-71.8-5.8-145.4-31.5-145.4-31.5a1.49,1.49,0,0,0-.2.31,3.79,3.79,0,0,0,3.8,2.5,22.19,22.19,0,0,1,7.2,1.19c1.5.5,3.5,1.2,5.8,2,19.8,6.7,67.3,26.7,103.8,41.81a137.6,137.6,0,0,0,76.4,7.3c15-3.11,26.9-9.2,34.9-16.61a48.75,48.75,0,0,0,15.9-32.69C287.68,142.15,257.38,173.85,185.58,168Z"/><path class="cls-16" d="M198.26,183.84c-30.5-3.4-86.8-21.8-123.3-34.6,23.5,9.1,57.7,23.5,85.5,35a137.6,137.6,0,0,0,76.4,7.3c15-3.1,26.9-9.2,34.9-16.6a48.79,48.79,0,0,0,15.9-32.7C282.46,169.14,246.06,189,198.26,183.84Z"/><path class="cls-20" d="M185.58,104c-71.8,5.8-145.4,31.5-145.4,31.5a1.24,1.24,0,0,1-.2-.3,3.79,3.79,0,0,1,3.8-2.5,22.2,22.2,0,0,0,7.2-1.2c1.5-.5,3.5-1.2,5.8-2,19.8-6.7,67.3-26.7,103.8-41.8a137.51,137.51,0,0,1,76.4-7.3c15,3.1,26.9,9.2,34.9,16.6a48.79,48.79,0,0,1,15.9,32.7C287.68,129.88,257.38,98.18,185.58,104Z"/><path class="cls-21" d="M198.26,88.18c-30.5,3.4-86.8,21.8-123.3,34.6,23.5-9.1,57.7-23.5,85.5-35a137.6,137.6,0,0,1,76.4-7.3c15,3.1,26.9,9.2,34.9,16.6a48.79,48.79,0,0,1,15.9,32.7C282.46,102.88,246.06,83,198.26,88.18Z"/><path class="cls-21" d="M231.45,145.54c-1.8,0-3.6,0-5.3-.09a1.74,1.74,0,0,1-1.7-1.91,1.72,1.72,0,0,1,1.9-1.69c1.7.1,3.4.1,5.1.1a1.8,1.8,0,1,1,0,3.59Z"/><path class="cls-21" d="M239.93,145.43a1.8,1.8,0,0,1,0-3.6,215.59,215.59,0,0,0,37.5-5.2,1.73,1.73,0,0,1,2.2,1.2,1.85,1.85,0,0,1-1.2,2.2h-.1A224.76,224.76,0,0,1,239.93,145.43Z"/><path class="cls-20" d="M292.39,136.08a8.17,8.17,0,0,0-4.19,4.4,6.14,6.14,0,0,1-.21-8.6l.21-.2A7.81,7.81,0,0,0,292.39,136.08Z"/><path class="cls-22" d="M24.38,121.69c22.8.8,19.4-20,29-22.7s9.6,8.8,16.5,9.2,6.5-5.8,16.1-6.3,7.3,11.3,16.91,12.5,13.69,7.2,13.69,7.2Z"/><path class="cls-23" d="M71,205.49h71.7s-2.3-12.4-17.89-11-6-7.4-17.9-12.4-6.4,13.8-17,13.8S85.18,206.49,71,205.49Z"/><path class="cls-24" d="M254.49,74.09H303s-1.59-8.4-12.09-7.5-4-5-12.1-8.4-4.4,9.3-11.5,9.3S264.08,74.69,254.49,74.09Z"/><path class="cls-25" d="M163.79,37.39h35.09s-1.09-6.1-8.79-5.4-2.91-3.6-8.8-6.1-3.2,6.8-8.3,6.8S170.79,37.89,163.79,37.39Z"/><path class="cls-26" d="M320.29,200.89c-16.9.6-14.31-14.8-21.4-16.7s-7.1,6.5-12.21,6.8-4.79-4.3-11.89-4.7-5.4,8.3-12.5,9.3-10.11,5.3-10.11,5.3Z"/><g class="cls-27"><path class="cls-28" d="M309.76-5.3a90,90,0,1,1,48.8,117.5h-.1A90.13,90.13,0,0,1,309.76-5.3Z"/><path class="cls-29" d="M323.26.3a75.42,75.42,0,1,1,40.9,98.5h-.1A75.64,75.64,0,0,1,323.26.3Z"/></g></svg>