<svg id="Layer_1" data-name="Layer 1" xmlns="http://www.w3.org/2000/svg" xmlns:xlink="http://www.w3.org/1999/xlink" viewBox="0 0 328.06 671.05"><defs><style>.cls-1{fill:#e4406f;}.cls-2{fill:#fff;}.cls-3{fill:#e33e18;}.cls-4{fill:#afafaf;}.cls-5{fill:url(#linear-gradient);}.cls-6{fill:url(#linear-gradient-2);}.cls-7{fill:url(#linear-gradient-3);}.cls-8{fill:url(#linear-gradient-4);}.cls-9{fill:url(#linear-gradient-5);}.cls-10{fill:url(#linear-gradient-6);}.cls-11,.cls-30{opacity:0.2;}.cls-11,.cls-13,.cls-28,.cls-29,.cls-30,.cls-31{isolation:isolate;}.cls-11{fill:url(#linear-gradient-7);}.cls-12{fill:url(#radial-gradient);}.cls-13{opacity:0.5;fill:url(#linear-gradient-8);}.cls-14{fill:#145374;}.cls-15{fill:#c92d4f;}.cls-16{fill:#700531;}.cls-17{fill:#f15a29;}.cls-18{fill:#fff8fa;}.cls-19{fill:#00334e;}.cls-20{fill:#ff6680;}.cls-21{fill:#ff2400;}.cls-22{fill:#ffa1b5;}.cls-23,.cls-28,.cls-29,.cls-30,.cls-31{fill:#ffdee6;}.cls-24{fill:#5588a3;}.cls-25{fill:#e8e8e8;}.cls-26{fill:#00aeef;}.cls-27{mask:url(#mask);}.cls-28{opacity:0.1;}.cls-29{opacity:0.15;}.cls-31{opacity:0.25;}</style><linearGradient id="linear-gradient" x1="329.16" y1="-2027.67" x2="146.27" y2="-1858.22" gradientTransform="matrix(1, 0, 0, -1, 0.14, -1750.1)" gradientUnits="userSpaceOnUse"><stop offset="0" stop-color="#e33e18"/><stop offset="1" stop-color="#6f0765"/></linearGradient><linearGradient id="linear-gradient-2" x1="291.6" y1="-1855.46" x2="275.51" y2="-1893.04" gradientTransform="matrix(1, 0, 0, -1, 0.14, -1750.1)" gradientUnits="userSpaceOnUse"><stop offset="0" stop-color="#fff"/><stop offset="1" stop-color="#fff" stop-opacity="0"/></linearGradient><linearGradient id="linear-gradient-3" x1="201.1" y1="-1942.85" x2="177.08" y2="-1998.95" xlink:href="#linear-gradient-2"/><linearGradient id="linear-gradient-4" x1="284.92" y1="-1908.22" x2="265.32" y2="-1961.88" xlink:href="#linear-gradient-2"/><linearGradient id="linear-gradient-5" x1="174.8" y1="-1756.89" x2="156.1" y2="-1800.58" xlink:href="#linear-gradient-2"/><linearGradient id="linear-gradient-6" x1="53.88" y1="-1847.86" x2="35.17" y2="-1891.55" xlink:href="#linear-gradient-2"/><linearGradient id="linear-gradient-7" x1="284.2" y1="-1782.72" x2="-8.82" y2="-1922.98" xlink:href="#linear-gradient-2"/><radialGradient id="radial-gradient" cx="-7035.8" cy="-463.85" r="1" gradientTransform="matrix(132.72, 0, 0, -132.58, 933701.86, -61439.38)" gradientUnits="userSpaceOnUse"><stop offset="0" stop-color="#e4406f"/><stop offset="1" stop-color="#e4406f" stop-opacity="0"/></radialGradient><linearGradient id="linear-gradient-8" x1="513.91" y1="-1841.23" x2="158.59" y2="-1906.34" xlink:href="#linear-gradient-2"/><mask id="mask" x="-50.2" y="-60.95" width="243.08" height="246.7" maskUnits="userSpaceOnUse"><g id="mask0"><path class="cls-1" d="M0,14.25C-.43,26.15,0,174,0,174a135.36,135.36,0,0,0,55.8,11.8c75.7,0,137.1-61.5,137.1-137.2A136.17,136.17,0,0,0,184,.05H13.27S.37,2.35,0,14.25Z"/></g></mask></defs><path class="cls-2" d="M15,2.05H313a13,13,0,0,1,13,13v609a13,13,0,0,1-13,13H15a13,13,0,0,1-13-13v-609A13,13,0,0,1,15,2.05Z"/><path class="cls-3" d="M15,4.05a11.12,11.12,0,0,0-7.9,3.3A10.64,10.64,0,0,0,4,15.05v609a11,11,0,0,0,3.2,7.8,10.8,10.8,0,0,0,7.8,3.2H313a11,11,0,0,0,7.8-3.2,10.8,10.8,0,0,0,3.2-7.8v-609a11,11,0,0,0-3.2-7.8,10.8,10.8,0,0,0-7.8-3.2Zm0-4H313a15,15,0,0,1,15,15v609a15,15,0,0,1-15,15H15a15,15,0,0,1-15-15v-609A14.92,14.92,0,0,1,15,.05Z"/><path class="cls-3" d="M96.8,607.05h134a32,32,0,0,1,0,64H96.8a32,32,0,1,1,0-64Z"/><path class="cls-4" d="M211.3,373.75l-3.8-4-3.8,4-3.9-4-3.8,4-3.8-4-3.8,4-3.9-4-3.8,4-3.8-4-3.9,4-3.8-4-3.8,4-3.8-4-3.9,4-3.8-4-3.8,4-3.8-4-3.9,4-3.8-4-3.8,4-3.9-4-3.8,4-3.8-4-3.8,4-3.9-4-3.8,4-4.2-4.4.7-.6,3.5,3.6,3.8-4,3.9,4,3.8-4,3.8,4,3.8-4,3.9,4,3.8-4,3.8,4,3.9-4,3.8,4,3.8-4,3.8,4,3.9-4,3.8,4,3.8-4,3.8,4,3.9-4,3.8,4,3.8-4,3.9,4,3.8-4,3.8,4,3.8-4,3.9,4,3.8-4,3.8,4,3.9-4,4.1,4.4-.7.6-3.4-3.6Z"/><path class="cls-5" d="M19.6,245.65c23,15.8,33.1,15.4,49.7,1.2s14.6,35.2,96.6,35.2,80-49.4,96.6-35.2,26.6,14.6,49.7-1.2a28.87,28.87,0,0,1,15.8-5.4V15.45A15,15,0,0,0,313.5.25H165.9L13.4.05C11.3.05,0,3.45,0,14.55s.2,225.8.2,225.8C6.1,239.65,12.8,240.85,19.6,245.65Z"/><path class="cls-2" d="M293.33,224.32c.6,0,2.3-.9.9-.9C293.63,223.42,291.93,224.32,293.33,224.32Z"/><path class="cls-2" d="M288.65,113.75c.8,0,2.2-1.3.8-1.3C288.55,112.45,287.25,113.75,288.65,113.75Z"/><path class="cls-2" d="M220.25,193c.8,0,2.2-1.3.8-1.3C220.15,191.68,218.85,193,220.25,193Z"/><path class="cls-2" d="M299.47,55.45c.8,0,2.2-1.2.8-1.2C299.47,54.25,298.07,55.45,299.47,55.45Z"/><path class="cls-2" d="M217.47,160.84c.9,0,2.2-1.4.8-1.4C217.27,159.44,216.07,160.84,217.47,160.84Z"/><path class="cls-2" d="M29.39,174.2c.9,0,2.2-1.3.8-1.3C29.29,172.9,28,174.2,29.39,174.2Z"/><path class="cls-2" d="M214,248.4c.9,0,2.2-1.31.8-1.31C213.9,247.09,212.6,248.4,214,248.4Z"/><path class="cls-2" d="M40.33,210.86c2.4,0,.8-2.7-.9-2.7C37,208.16,38.63,210.86,40.33,210.86Z"/><path class="cls-2" d="M55.26,149.81c1.9,0,3.3-2.9.9-2.9C54.26,146.91,53,149.81,55.26,149.81Z"/><path class="cls-2" d="M287.81,15.79c1.5,0-.9-2.6-2-2.6C284.31,13.19,286.71,15.79,287.81,15.79Z"/><path class="cls-2" d="M259.27,181c1.9,0,2.8-3,.5-3C257.77,178,256.87,181,259.27,181Z"/><path class="cls-2" d="M219.14,12.43c1,0,2.6-1.7,3-1.7C221.14,10.73,219.54,12.43,219.14,12.43Z"/><path class="cls-6" d="M296.8,127.65l-35.7,13.8,34.4-16.8a1.66,1.66,0,0,1,1.4,3C296.9,127.55,296.8,127.65,296.8,127.65Z"/><path class="cls-7" d="M208.8,226l-53.2,20.5,51.3-25a2.46,2.46,0,1,1,2.2,4.4A.44.44,0,0,0,208.8,226Z"/><path class="cls-8" d="M305.3,176.85l-64.2,24.8,61.8-30.2a2.93,2.93,0,0,1,2.5,5.3C305.5,176.75,305.4,176.85,305.3,176.85Z"/><path class="cls-9" d="M180.9,32.75l-41.5,16,39.9-19.5a1.88,1.88,0,0,1,1.6,3.4C181,32.65,181,32.75,180.9,32.75Z"/><path class="cls-10" d="M60,123.65l-41.5,16,39.9-19.5a1.88,1.88,0,0,1,1.6,3.4C60.1,123.65,60,123.65,60,123.65Z"/><path class="cls-11" d="M89.7,143.85c-60.7,17.9-73.5,66-75.2,96.3a28.2,28.2,0,0,1,13.6,4.5c4.8-29.9,30.2-67.1,70-69.8,49.9-3.4,95-35.4,84.5-100.9s54-73.9,54-73.9H165.7C103.8,36.65,181.2,116.75,89.7,143.85Z"/><path class="cls-12" d="M0,14.25C-.4,26.15,0,174,0,174a135.36,135.36,0,0,0,55.8,11.8c75.7,0,137.1-61.5,137.1-137.2A136.17,136.17,0,0,0,184,.05H13.3S.4,2.35,0,14.25Z"/><path class="cls-13" d="M252.8,124.45c-56.5,27.2,21.1,112.5-47.9,122.1-29.4,4.1-42.7,19.2-48.3,35.3,2.9.1,5.9.2,9.1.2h3.2c6-16.9,27.9-19.9,55.2-19.9a36.22,36.22,0,0,0,14.5-3c7.5-6.7,11.7-12.7,15.9-14.4,6.6-10.9,9.2-26,6.8-42.4-4.8-32.4,7-48.9,61.8-79.2,1.8-1,3.4-2,5-3.1V.05H314.4C314.3.05,309.2,97.25,252.8,124.45Z"/><path class="cls-14" d="M123.6,155.86l-5.45,5.45L145,188.1l5.45-5.44Z"/><path class="cls-15" d="M130.2,148.27c-32.4-9.5-58.8,9.5-58.8,9.5,18.1-35.8,45.1-44.1,61.4-45.6a53.93,53.93,0,0,1,13.9.3Z"/><path class="cls-16" d="M130.2,148.27c-32.4-9.5-58.8,9.5-58.8,9.5.3-.4,12.8-16.2,42.5-17.7l18.8-27.9a53.93,53.93,0,0,1,13.9.3Z"/><path class="cls-15" d="M158,175.94c9.5,32.4-9.5,58.8-9.5,58.8,35.8-18.1,44.1-45.1,45.6-61.4a53.93,53.93,0,0,0-.3-13.9Z"/><path class="cls-16" d="M158,175.94c9.5,32.4-9.5,58.8-9.5,58.8.4-.3,16.2-12.8,17.7-42.5l27.9-18.8a53.93,53.93,0,0,0-.3-13.9Z"/><path class="cls-17" d="M86.92,219.25c.3-.3,3.3-3,8.8-2,5.8,1.1,14.3-6.3,14.3-6.3l-5.8,8.2c21.2-6.3,22.7-27.3,22.7-27.3l-6.3-6.3-6.3-6.3s-21,1.5-27.3,22.7l8.2-5.8s-7.3,8.5-6.3,14.3C90,216,87.32,219,86.92,219.25Z"/><path class="cls-18" d="M260.1,46.15c-121.8,15.4-136.5,109.7-136.5,109.7l13.4,13.4,13.4,13.4S244.6,168,260.1,46.15Z"/><path class="cls-15" d="M234.2,72a63.27,63.27,0,0,0,17.5,12.4,217.94,217.94,0,0,0,8.3-38.3,217.94,217.94,0,0,0-38.3,8.3A64.7,64.7,0,0,0,234.2,72Z"/><path class="cls-19" d="M150.4,182.65l-2.3,2.3-18.5-18.4a3.2,3.2,0,0,1,0-4.6Z"/><path class="cls-19" d="M113.4,162.85l.8-.8a3.2,3.2,0,0,1,4.6,0l25.4,25.4a3.2,3.2,0,0,1,0,4.6l-.8.8a3.2,3.2,0,0,1-4.6,0l-25.4-25.4A3.2,3.2,0,0,1,113.4,162.85Z"/><path class="cls-20" d="M66.8,239.39c.6-.5,5.3-4.9,14-3.3,9.2,1.7,17.9-5.1,17.9-5.1l-4.3,8.1c33.8-10,36.3-43.5,36.3-43.5l-10.1-10.1-10.1-10.1S77,177.89,67,211.69l8.1-4.3s-6.8,8.7-5.1,17.9C71.7,234.09,67.4,238.79,66.8,239.39Z"/><path class="cls-21" d="M70.2,225.75a.6.6,0,0,0-.1-.4C70.1,225.55,70.2,225.65,70.2,225.75Z"/><path class="cls-22" d="M85.44,220.78c.4-.4,3.5-3.2,9.1-2.1,6,1.1,15-6.6,15-6.6l-6,8.6c22.1-6.5,23.7-28.5,23.7-28.5l-6.6-6.6L114,179s-21.9,1.6-28.5,23.7l8.6-6s-7.7,8.9-6.6,15C88.64,217.28,85.84,220.38,85.44,220.78Z"/><path class="cls-23" d="M97.62,208.56a6.88,6.88,0,0,1,6-1.4c3.9.7,9.8-4.3,9.8-4.3l-4,5.6c14.4-4.3,15.5-18.6,15.5-18.6l-4.3-4.3-4.3-4.3s-14.3,1.1-18.6,15.5l5.6-4s-5,5.8-4.3,9.8A6.88,6.88,0,0,1,97.62,208.56Z"/><path class="cls-14" d="M132.33,193.77l-19.9-19.9a3.5,3.5,0,0,1,0-5l-1.7,1.7a3.5,3.5,0,0,0,0,5l19.9,19.9a3.5,3.5,0,0,0,5,0l1.7-1.7A3.5,3.5,0,0,1,132.33,193.77Z"/><path class="cls-14" d="M112.43,173.87l19.9,19.9a3.5,3.5,0,0,0,5,0l1.2-1.2-24.9-24.9-1.2,1.2A3.5,3.5,0,0,0,112.43,173.87Z"/><path class="cls-24" d="M137.3,193.75l-1.7,1.7a3.5,3.5,0,0,1-5,0l-19.9-19.9a3.5,3.5,0,0,1,0-5l1.7-1.7a3.5,3.5,0,0,0,0,5l19.9,19.9A3.5,3.5,0,0,0,137.3,193.75Z"/><path class="cls-14" d="M112.4,168.85a3.5,3.5,0,0,0,0,5l19.9,19.9a3.5,3.5,0,0,0,5,0l1.2-1.2-24.9-24.9Z"/><path class="cls-25" d="M118.88,166.5h-1v1h1Z"/><path class="cls-25" d="M123,170.65h-1v1h1Z"/><path class="cls-25" d="M127.17,174.8h-1v1h1Z"/><path class="cls-25" d="M131.32,179h-1v1h1Z"/><path class="cls-25" d="M135.47,183.1h-1v1h1Z"/><path class="cls-25" d="M139.62,187.25h-1v1h1Z"/><path class="cls-22" d="M260.1,46.15c-6.8,28.2-62.8,108-97.3,116.4-17.7,4.3-27.5,2.4-33-.4l7.1,7.1,13.4,13.4C150.4,182.65,244.6,168,260.1,46.15Z"/><path class="cls-15" d="M258.5,56.35l-.1.3Z"/><path class="cls-15" d="M259,53.75a.37.37,0,0,1-.1.3A.49.49,0,0,1,259,53.75Z"/><path class="cls-14" d="M254.3,75.65c-.8,3-1.7,5.9-2.6,8.7C252.7,81.65,253.5,78.65,254.3,75.65Z"/><path class="cls-14" d="M259.3,51.55c-.1.8-.2,1.5-.3,2.3C259.1,53.05,259.2,52.25,259.3,51.55Z"/><path class="cls-14" d="M258.9,54.15a17,17,0,0,1-.4,2.2A17,17,0,0,0,258.9,54.15Z"/><path class="cls-14" d="M259.7,48.85c-.1.8-.2,1.6-.3,2.3C259.5,50.45,259.6,49.65,259.7,48.85Z"/><path class="cls-14" d="M260.1,46.15c-.1.8-.2,1.7-.3,2.5A10.68,10.68,0,0,1,260.1,46.15Z"/><path class="cls-14" d="M258.5,56.65c-.1.7-.3,1.5-.4,2.2C258.2,58.15,258.4,57.45,258.5,56.65Z"/><path class="cls-14" d="M255.5,71.15a14.19,14.19,0,0,0-.5,2.2A14.19,14.19,0,0,1,255.5,71.15Z"/><path class="cls-14" d="M256.6,66.35c-.2.8-.3,1.5-.5,2.3C256.3,67.85,256.4,67.15,256.6,66.35Z"/><path class="cls-14" d="M257.6,61.55c-.3,1.6-.6,3.2-1,4.7C256.9,64.75,257.3,63.15,257.6,61.55Z"/><path class="cls-14" d="M256.1,68.75c-.2.7-.3,1.5-.5,2.2A17.42,17.42,0,0,1,256.1,68.75Z"/><path class="cls-14" d="M258,59.15c-.1.8-.3,1.5-.4,2.3A18.46,18.46,0,0,0,258,59.15Z"/><path class="cls-14" d="M254.9,73.45c-.2.7-.4,1.4-.6,2.2C254.5,74.85,254.7,74.15,254.9,73.45Z"/><path class="cls-16" d="M251.8,84.45c.9-2.8,1.8-5.7,2.6-8.7v-.1c.2-.7.4-1.4.6-2.2v-.2a14.19,14.19,0,0,0,.5-2.2v-.2a17.42,17.42,0,0,0,.5-2.2v-.1c.2-.8.3-1.5.5-2.3.3-1.6.7-3.1,1-4.7v-.1c.1-.8.3-1.5.4-2.3v-.3c.1-.7.3-1.5.4-2.2l.1-.3a17,17,0,0,1,.4-2.2.37.37,0,0,1,.1-.3c.1-.8.2-1.5.3-2.3v-.3c.1-.8.2-1.6.3-2.3v-.2c.1-.8.2-1.7.3-2.5-1.9,8-7.8,20.2-16.1,33.8A91,91,0,0,0,251.8,84.45Z"/><path class="cls-22" d="M200.6,128.05a22.4,22.4,0,1,0-22.4-22.4A22.4,22.4,0,0,0,200.6,128.05Z"/><path class="cls-19" d="M205.2,123.35A22.4,22.4,0,1,0,182.8,101,22.4,22.4,0,0,0,205.2,123.35Z"/><path class="cls-26" d="M205.25,116.74a15.8,15.8,0,1,0-15.8-15.8A15.8,15.8,0,0,0,205.25,116.74Z"/><path class="cls-25" d="M218.74,88.54a1.1,1.1,0,1,0-1.1-1.1A1.1,1.1,0,0,0,218.74,88.54Z"/><path class="cls-25" d="M205.24,82.94a1.1,1.1,0,1,0-1.1-1.1A1.1,1.1,0,0,0,205.24,82.94Z"/><path class="cls-25" d="M191.74,88.54a1.1,1.1,0,1,0-1.1-1.1A1.1,1.1,0,0,0,191.74,88.54Z"/><path class="cls-25" d="M186.14,102.14A1.1,1.1,0,1,0,185,101,1.1,1.1,0,0,0,186.14,102.14Z"/><path class="cls-25" d="M191.74,115.64a1.1,1.1,0,1,0-1.1-1.1A1.1,1.1,0,0,0,191.74,115.64Z"/><path class="cls-25" d="M205.24,121.24a1.1,1.1,0,1,0-1.1-1.1A1.1,1.1,0,0,0,205.24,121.24Z"/><path class="cls-25" d="M218.74,115.64a1.1,1.1,0,1,0-1.1-1.1A1.1,1.1,0,0,0,218.74,115.64Z"/><path class="cls-25" d="M224.34,102.14a1.1,1.1,0,1,0-1.1-1.1A1.1,1.1,0,0,0,224.34,102.14Z"/><path class="cls-15" d="M146.8,168.44a135.1,135.1,0,0,1-34,24.5,130.4,130.4,0,0,1,58.5-58.5A139.52,139.52,0,0,1,146.8,168.44Z"/><path class="cls-16" d="M146.8,168.44a135.1,135.1,0,0,0,24.5-34c-12.4,17.9-58.5,58.5-58.5,58.5A136.91,136.91,0,0,0,146.8,168.44Z"/><g class="cls-27"><path class="cls-28" d="M-43.4-5.3A90,90,0,1,1,5.4,112.2H5.3A90.13,90.13,0,0,1-43.4-5.3Z"/><path class="cls-29" d="M-29.9.3A75.42,75.42,0,1,1,11,98.8h-.1A75.64,75.64,0,0,1-29.9.3Z"/><path class="cls-30" d="M39.7,91.9a60.8,60.8,0,1,1,60.8-60.8A60.77,60.77,0,0,1,39.7,91.9Z"/><path class="cls-31" d="M39.7,75.3A46.2,46.2,0,1,1,85.9,29.1,46.22,46.22,0,0,1,39.7,75.3Z"/><path class="cls-23" d="M39.7,60.7A31.6,31.6,0,1,0,8.1,29.1,31.6,31.6,0,0,0,39.7,60.7Z"/><path class="cls-22" d="M71.4,29.1a31.67,31.67,0,0,0-61.7-10c2.2,7.2,16.9-9.8,22.8-10.8S21.8,23.6,26.9,22,40.8,10.5,47,11,23.7,34.5,24.8,40.7,48.3,23.6,54.2,23.3,36.8,41.7,39.8,42.6,55.6,33.5,58,35.5s-12.8,17-8.8,16.7,11.9-6.5,12.8-4a16.28,16.28,0,0,1,.3,3.1A31.75,31.75,0,0,0,71.4,29.1Z"/></g></svg>